<svg xmlns="http://www.w3.org/2000/svg" width="27.337" height="27.223" viewBox="0 0 27.337 27.223">
  <path id="패스_537" data-name="패스 537" d="M-119.107,373.035l-4.139-4.139a2.458,2.458,0,0,0-1.7-.69,2.53,2.53,0,0,0-1.8.743l-1.167,1.167a1.279,1.279,0,0,1-.955.372,1.63,1.63,0,0,1-.689-.159,19.577,19.577,0,0,1-4.192-3.131,18.379,18.379,0,0,1-3.131-4.192,1.287,1.287,0,0,1,.212-1.592l1.168-1.167a2.5,2.5,0,0,0,.053-3.5l-4.139-4.139a2.453,2.453,0,0,0-1.7-.69,2.525,2.525,0,0,0-1.8.743,7.245,7.245,0,0,0-2.6,4.775c-.584,4.617,1.539,8.809,7.164,14.487a27.26,27.26,0,0,0,8.809,6.1,14.44,14.44,0,0,0,5.148,1.115h.531c2.282-.265,3.29-1.168,4.776-2.6A2.456,2.456,0,0,0-119.107,373.035Z" transform="translate(145.787 -351.915)" fill="#354593"/>
</svg>
