<svg xmlns="http://www.w3.org/2000/svg" width="49.794" height="49.955" viewBox="0 0 49.794 49.955">
  <path id="패스_213" data-name="패스 213" d="M489.025-424.692l-1.511-14.429c0-.009-.008-.017-.009-.026a2.76,2.76,0,0,0-.174-.792,20.667,20.667,0,0,0-3.745-6.213c2.486-3.888,2.569-8.465.316-11.142a6,6,0,0,0-1.077-1.008,5.962,5.962,0,0,0-1.084-.607c-3.445-1.524-8.188.219-11.141,4.313a13.206,13.206,0,0,0-.9,1.425,7.722,7.722,0,0,0-5.627,1.962l-24.251,21.686a1.684,1.684,0,0,0-.565,1.389,1.682,1.682,0,0,0,.075.395l1.582,15.115a3.484,3.484,0,0,0,1.463,2.489,3.483,3.483,0,0,0,2.5.6c.113-.016.226-.039.338-.066l40.122-9.852A4.894,4.894,0,0,0,489.025-424.692Zm-6.748-31.322c1.663,1.883,1.587,5.27-.182,8.318-.187.322-.375.644-.6.956-2.245,3.113-5.659,4.617-8.188,3.811,2.2-1.666,4.323-3.97,4.849-6.907.037-.2.1-.4.15-.6A12.126,12.126,0,0,1,482.277-456.014Zm-10.353,3.182c.118-.185.221-.374.352-.555,2.078-2.882,5.156-4.383,7.608-3.952a14.405,14.405,0,0,0-3.933,5.766,9.357,9.357,0,0,0-.337,1.282c-.432,2.41-2.451,4.352-4.461,5.737C469.787-446.589,470.061-449.908,471.924-452.832Zm12.923,31.373-40.122,9.852a1.405,1.405,0,0,1-1.157-.218,1.4,1.4,0,0,1-.6-1.014L441.6-425.945a11.255,11.255,0,0,0,7.837.8,4.5,4.5,0,0,0,2.945-2.121,2.158,2.158,0,0,1,1.836-1.145,2.871,2.871,0,0,1,1.86.44,7.18,7.18,0,0,0,5.851.464,5.965,5.965,0,0,0,4.111-3.352,2.888,2.888,0,0,1,1.158-1.4,3.073,3.073,0,0,1,2.323.014l10.571,5.415a1.98,1.98,0,0,0,1.585.072l.009,0c1.839-.709,3.281-2.668,4.41-6.049l.873,8.333A2.819,2.819,0,0,1,484.847-421.459Z" transform="translate(-439.257 459.454)" fill="#153683"/>
</svg>
