<svg xmlns="http://www.w3.org/2000/svg" width="29.076" height="108.232" viewBox="0 0 29.076 108.232">
  <g id="그룹_52" data-name="그룹 52" transform="translate(965.588 357.472) rotate(0.5)">
    <path id="패스_133" data-name="패스 133" d="M-945.821-243.342-965-240.995l-.828-6.762a14.625,14.625,0,0,1-.017-3.772,5.473,5.473,0,0,1,1.138-2.795,4.018,4.018,0,0,1,2.733-1.314,4.762,4.762,0,0,1,1.756.111,4.684,4.684,0,0,1,1.6.732,3.665,3.665,0,0,1,1.126,1.278l.1-.013a5.061,5.061,0,0,1,1.169-2.758,4.3,4.3,0,0,1,2.905-1.418,4.877,4.877,0,0,1,3.313.643,6.14,6.14,0,0,1,2.2,2.563,12.086,12.086,0,0,1,1.088,3.858Zm-11.994-2.972-.263-2.147a3.981,3.981,0,0,0-.939-2.418,2.11,2.11,0,0,0-1.811-.569,1.767,1.767,0,0,0-1.527,1.005,4.838,4.838,0,0,0-.192,2.5l.267,2.174Zm8.207-1.005-.316-2.576a5.155,5.155,0,0,0-1.009-2.777,2.259,2.259,0,0,0-2.119-.735,2.026,2.026,0,0,0-1.765,1.2,5.828,5.828,0,0,0-.217,2.942l.315,2.576Z" fill="#354593"/>
    <path id="패스_134" data-name="패스 134" d="M-947.886-269.342a10.144,10.144,0,0,1-.38,3.454,6.083,6.083,0,0,1-1.539,2.571,7.176,7.176,0,0,1-2.815,1.654,14.977,14.977,0,0,1-4.133.7l-10.441.463-.2-4.375,10.858-.482a8.721,8.721,0,0,0,3.007-.566,3.144,3.144,0,0,0,1.568-1.3,3.6,3.6,0,0,0,.408-1.953,3.664,3.664,0,0,0-.58-1.923,3.18,3.18,0,0,0-1.679-1.185,8.452,8.452,0,0,0-3.045-.311l-10.858.482-.188-4.241,10.441-.463a15.016,15.016,0,0,1,4.179.328,7.322,7.322,0,0,1,2.951,1.385,6.02,6.02,0,0,1,1.759,2.4A9.949,9.949,0,0,1-947.886-269.342Z" fill="#354593"/>
    <path id="패스_135" data-name="패스 135" d="M-948.448-285.436l-15.776-.465-.163,5.54-3.534-.1.456-15.512,3.534.1-.163,5.54,15.776.465Z" fill="#354593"/>
    <path id="패스_136" data-name="패스 136" d="M-947.537-302.207l-15.708-1.532-.538,5.517-3.519-.343,1.506-15.446,3.52.342-.538,5.517,15.708,1.532Z" fill="#354593"/>
    <path id="패스_137" data-name="패스 137" d="M-946.131-315.019l-19.055-3.174,2.056-12.348,3.488.58-1.333,8,3.976.663,1.128-6.774,3.514.585-1.128,6.774,4.564.76,1.382-8.294,3.514.585Z" fill="#354593"/>
    <path id="패스_138" data-name="패스 138" d="M-943.292-331.3l-18.78-4.525,1.678-6.965a12.942,12.942,0,0,1,1.439-3.644,5.533,5.533,0,0,1,2.443-2.262,5.649,5.649,0,0,1,3.73-.158,5.919,5.919,0,0,1,3.247,1.839,5.885,5.885,0,0,1,1.348,3.175,11.047,11.047,0,0,1-.277,3.924l-.645,2.681,6.849,1.651Zm-9.078-6.72.557-2.314a4.453,4.453,0,0,0-.078-2.9,2.608,2.608,0,0,0-1.9-1.445,2.159,2.159,0,0,0-2.209.455,5.639,5.639,0,0,0-1.2,2.59l-.558,2.313Zm11.624-3.847-8.97,2.484-1.944-3.583,12.066-3.685Z" fill="#354593"/>
  </g>
</svg>
