<svg xmlns="http://www.w3.org/2000/svg" width="90.028" height="49.475" viewBox="0 0 90.028 49.475">
  <g id="그룹_53" data-name="그룹 53" transform="translate(831.873 551.717) rotate(0.5)">
    <path id="패스_142" data-name="패스 142" d="M-826.425-495.1l-9.8-16.648,10.835-6.378,1.794,3.047-7.037,4.142,2.362,4.011,6.034-3.552,1.794,3.047-6.034,3.553,3.851,6.542Z" fill="#354593"/>
    <path id="패스_143" data-name="패스 143" d="M-812.707-503.017l-8.805-17.195,3.923-2.009,7.182,14.025,7.123-3.648,1.623,3.171Z" fill="#354593"/>
    <path id="패스_144" data-name="패스 144" d="M-792.348-512.436a9.159,9.159,0,0,1-4.821.778,8.237,8.237,0,0,1-4.328-1.916,11.9,11.9,0,0,1-3.216-4.513,11.571,11.571,0,0,1-1.088-5.382,7.973,7.973,0,0,1,1.59-4.377,9.46,9.46,0,0,1,3.877-2.948,9.358,9.358,0,0,1,4.818-.82,8.094,8.094,0,0,1,4.274,1.826,11.509,11.509,0,0,1,3.19,4.453,11.916,11.916,0,0,1,1.109,5.43,8.275,8.275,0,0,1-1.536,4.467A9.14,9.14,0,0,1-792.348-512.436Zm-1.462-3.362a3.864,3.864,0,0,0,1.915-1.7,5.107,5.107,0,0,0,.571-2.687,9.32,9.32,0,0,0-.844-3.361,9.037,9.037,0,0,0-1.863-2.861,4.754,4.754,0,0,0-2.323-1.343,4.048,4.048,0,0,0-2.528.291,4.045,4.045,0,0,0-1.935,1.65,4.664,4.664,0,0,0-.59,2.61,9.224,9.224,0,0,0,.835,3.309,9.513,9.513,0,0,0,1.872,2.914,5,5,0,0,0,2.342,1.419A3.864,3.864,0,0,0-793.81-515.8Z" fill="#354593"/>
    <path id="패스_145" data-name="패스 145" d="M-773.357-519.855a10.143,10.143,0,0,1-3.418.625,6.094,6.094,0,0,1-2.906-.738,7.216,7.216,0,0,1-2.39-2.223,15.015,15.015,0,0,1-1.853-3.761l-3.433-9.871,4.136-1.44L-779.649-527a8.652,8.652,0,0,0,1.4,2.719,3.145,3.145,0,0,0,1.7,1.13,3.592,3.592,0,0,0,1.988-.168,3.676,3.676,0,0,0,1.676-1.106,3.188,3.188,0,0,0,.654-1.949,8.439,8.439,0,0,0-.575-3.007l-3.57-10.265,4.009-1.394,3.435,9.871a15.045,15.045,0,0,1,.881,4.1,7.317,7.317,0,0,1-.482,3.224,5.994,5.994,0,0,1-1.794,2.372A9.951,9.951,0,0,1-773.357-519.855Z" fill="#354593"/>
    <path id="패스_146" data-name="패스 146" d="M-761.873-524.035l-5.033-18.651,6.917-1.867a12.961,12.961,0,0,1,3.888-.484,5.552,5.552,0,0,1,3.157,1.06,5.66,5.66,0,0,1,1.927,3.2,5.926,5.926,0,0,1-.058,3.732,5.889,5.889,0,0,1-2.14,2.7,11.046,11.046,0,0,1-3.577,1.638l-2.662.719,1.836,6.8Zm1.545-11.189,2.3-.62a4.468,4.468,0,0,0,2.506-1.457,2.615,2.615,0,0,0,.357-2.359,2.159,2.159,0,0,0-1.459-1.72,5.65,5.65,0,0,0-2.847.189l-2.3.62Zm8.948,8.357-6.479-6.681,2.212-3.424,9.018,8.823Z" fill="#354593"/>
  </g>
</svg>
