<svg xmlns="http://www.w3.org/2000/svg" width="21.947" height="72.939" viewBox="0 0 21.947 72.939">
  <g id="그룹_49" data-name="그룹 49" transform="translate(418.049 322.556) rotate(0.5)">
    <path id="패스_161" data-name="패스 161" d="M-420.693-316.671-401.5-318.9l.517,4.459-9.088,6.5-3.98,2.476.016.134q1.5-.365,3.325-.78a33.069,33.069,0,0,1,3.529-.613l7-.812.482,4.162-19.189,2.226-.517-4.458,9.143-6.477,3.9-2.466-.016-.135q-1.534.315-3.317.739a30.275,30.275,0,0,1-3.487.622l-7.026.815Z" fill="#354593"/>
    <path id="패스_162" data-name="패스 162" d="M-418.654-288.814a10.14,10.14,0,0,1,.415-3.45,6.085,6.085,0,0,1,1.563-2.557,7.229,7.229,0,0,1,2.832-1.626,14.988,14.988,0,0,1,4.14-.656l10.446-.358.151,4.376-10.862.374a8.642,8.642,0,0,0-3.012.537,3.133,3.133,0,0,0-1.582,1.285,3.589,3.589,0,0,0-.427,1.949,3.659,3.659,0,0,0,.56,1.928,3.186,3.186,0,0,0,1.667,1.2,8.453,8.453,0,0,0,3.042.342l10.863-.373.145,4.242-10.446.358a14.975,14.975,0,0,1-4.175-.37,7.317,7.317,0,0,1-2.936-1.414,6,6,0,0,1-1.735-2.416A9.974,9.974,0,0,1-418.654-288.814Z" fill="#354593"/>
    <path id="패스_163" data-name="패스 163" d="M-418.252-272.688l15.77.624.218-5.539,3.534.14-.613,15.507-3.533-.139.219-5.538-15.77-.624Z" fill="#354593"/>
    <path id="패스_164" data-name="패스 164" d="M-419.823-254.8a11.375,11.375,0,0,1,1.118-3.853,10.636,10.636,0,0,1,2.412-3.229l2.663,2.8a8.545,8.545,0,0,0-1.733,2.227,6.639,6.639,0,0,0-.821,2.511,3.637,3.637,0,0,0,.3,2.219,1.682,1.682,0,0,0,1.336.859,1.46,1.46,0,0,0,1.072-.256,3.377,3.377,0,0,0,.8-.937q.378-.613.806-1.466l1.33-2.5a8.906,8.906,0,0,1,1.3-1.835,5.415,5.415,0,0,1,1.862-1.33,4.806,4.806,0,0,1,2.452-.331,4.987,4.987,0,0,1,2.8,1.2A6.178,6.178,0,0,1-400.33-256a8.579,8.579,0,0,1,.37,3.748,9.7,9.7,0,0,1-.988,3.364,8.416,8.416,0,0,1-2.18,2.751l-2.41-2.479a8.817,8.817,0,0,0,1.329-1.846,5.91,5.91,0,0,0,.629-2.165,3.368,3.368,0,0,0-.281-1.959,1.507,1.507,0,0,0-1.234-.833,1.385,1.385,0,0,0-1.063.3,3.523,3.523,0,0,0-.811,1.017q-.369.654-.8,1.508l-1.273,2.45a7.842,7.842,0,0,1-1.394,1.976,4.983,4.983,0,0,1-1.835,1.2,5.3,5.3,0,0,1-2.4.24,5.325,5.325,0,0,1-2.857-1.179,6.173,6.173,0,0,1-1.9-2.778A9.212,9.212,0,0,1-419.823-254.8Z" fill="#354593"/>
  </g>
</svg>
