<svg xmlns="http://www.w3.org/2000/svg" width="46.135" height="51.744" viewBox="0 0 46.135 51.744">
  <g id="그룹_27" data-name="그룹 27" transform="translate(924.443 469.512) rotate(0.5)">
    <path id="패스_139" data-name="패스 139" d="M-911.841-409.887l-16.214-10.5,6.8-10.507,2.968,1.922-4.409,6.808,3.383,2.191,3.733-5.764,2.989,1.936-3.733,5.764,3.885,2.516,4.571-7.058,2.989,1.937Z" fill="#354593"/>
    <path id="패스_140" data-name="패스 140" d="M-897.175-430.522a10.715,10.715,0,0,1-3.886,3.285,8.585,8.585,0,0,1-4.784.8A10.528,10.528,0,0,1-911-428.67a11.121,11.121,0,0,1-2.944-3.18,9.284,9.284,0,0,1-1.268-3.592,9.115,9.115,0,0,1,.282-3.662,10.445,10.445,0,0,1,1.736-3.431,8.4,8.4,0,0,1,2.863-2.531,10.132,10.132,0,0,1,2.918-1l.764,3.483a7.554,7.554,0,0,0-1.877.636,4.879,4.879,0,0,0-1.678,1.5,5.177,5.177,0,0,0-1.071,2.679,5.109,5.109,0,0,0,.588,2.828,7.7,7.7,0,0,0,2.3,2.591,8.529,8.529,0,0,0,3.135,1.563,4.634,4.634,0,0,0,2.91-.213,6.186,6.186,0,0,0,2.512-2.086,4.833,4.833,0,0,0,.623-1.088,2.761,2.761,0,0,0,.232-1.043l-2.763-2.079-2.031,2.7-2.785-2.094,4.388-5.834,7.085,5.329a8.65,8.65,0,0,1-.346,3.207A10.334,10.334,0,0,1-897.175-430.522Z" fill="#354593"/>
    <path id="패스_141" data-name="패스 141" d="M-884.962-445.386a10.7,10.7,0,0,1-4.12,2.986,8.586,8.586,0,0,1-4.829.441,10.542,10.542,0,0,1-4.971-2.613,11.137,11.137,0,0,1-2.7-3.389,9.272,9.272,0,0,1-.995-3.677,9.056,9.056,0,0,1,.555-3.631,10.45,10.45,0,0,1,1.986-3.292,8.394,8.394,0,0,1,3.045-2.311,10.113,10.113,0,0,1,2.984-.781l.5,3.53a7.562,7.562,0,0,0-1.919.494,4.895,4.895,0,0,0-1.785,1.365,5.2,5.2,0,0,0-1.268,2.592,5.1,5.1,0,0,0,.377,2.864,7.678,7.678,0,0,0,2.1,2.755,8.512,8.512,0,0,0,3.01,1.793,4.637,4.637,0,0,0,2.918.005,6.184,6.184,0,0,0,2.66-1.893,4.867,4.867,0,0,0,.7-1.038,2.765,2.765,0,0,0,.309-1.023l-2.6-2.279-2.227,2.541-2.62-2.3,4.811-5.49,6.668,5.844a8.673,8.673,0,0,1-.585,3.172A10.316,10.316,0,0,1-884.962-445.386Z" fill="#354593"/>
  </g>
</svg>
