<svg xmlns="http://www.w3.org/2000/svg" width="59.358" height="72.4" viewBox="0 0 59.358 72.4">
  <g id="그룹_54" data-name="그룹 54" transform="translate(478.904 464.08) rotate(0.5)">
    <path id="패스_156" data-name="패스 156" d="M-482.793-447.268l14.629-12.616,8.211,9.52-2.678,2.31-5.332-6.184-3.524,3.04,4.573,5.3-2.678,2.309-4.573-5.3-5.749,4.959Z" fill="#354593"/>
    <path id="패스_157" data-name="패스 157" d="M-472.564-435.248l15.434-11.617,4.309,5.724a12.949,12.949,0,0,1,1.9,3.429,5.54,5.54,0,0,1,.193,3.324,5.663,5.663,0,0,1-2.249,2.979,5.924,5.924,0,0,1-3.486,1.336,5.883,5.883,0,0,1-3.307-.979,11.046,11.046,0,0,1-2.853-2.709l-1.658-2.2-5.629,4.237Zm6.536,8.684,3.786-8.5,4,.777-4.83,11.656Zm4.423-11.417,1.431,1.9a4.455,4.455,0,0,0,2.285,1.782,2.614,2.614,0,0,0,2.323-.546,2.159,2.159,0,0,0,1.052-1.994,5.64,5.64,0,0,0-1.235-2.572l-1.432-1.9Z" fill="#354593"/>
    <path id="패스_158" data-name="패스 158" d="M-457.641-413.6a10.163,10.163,0,0,1-1.4-3.18,6.07,6.07,0,0,1,.041-3,7.213,7.213,0,0,1,1.607-2.843,14.958,14.958,0,0,1,3.225-2.676l8.8-5.637,2.362,3.688-9.151,5.862a8.636,8.636,0,0,0-2.318,2,3.149,3.149,0,0,0-.7,1.912,3.6,3.6,0,0,0,.626,1.894,3.684,3.684,0,0,0,1.467,1.373,3.181,3.181,0,0,0,2.046.182,8.409,8.409,0,0,0,2.791-1.258l9.152-5.861,2.29,3.574-8.8,5.638a14.969,14.969,0,0,1-3.781,1.81,7.318,7.318,0,0,1-3.247.283,6.007,6.007,0,0,1-2.724-1.194A9.979,9.979,0,0,1-457.641-413.6Z" fill="#354593"/>
    <path id="패스_159" data-name="패스 159" d="M-450.961-403.307l16.84-9.466,2.16,3.842-16.84,9.466Z" fill="#354593"/>
    <path id="패스_160" data-name="패스 160" d="M-444.84-391.974l14.138-7.014-2.463-4.965,3.168-1.571,6.9,13.9-3.168,1.572-2.463-4.965L-442.869-388Z" fill="#354593"/>
  </g>
</svg>
