<svg xmlns="http://www.w3.org/2000/svg" width="157.845" height="63.551" viewBox="0 0 157.845 63.551">
  <g id="그룹_51" data-name="그룹 51" transform="translate(679.892 560.815) rotate(0.5)">
    <path id="패스_147" data-name="패스 147" d="M-675.5-534.849a10.018,10.018,0,0,1-3.582-.714A8.475,8.475,0,0,1-682-537.524a8.818,8.818,0,0,1-1.946-3.163,11.631,11.631,0,0,1-.638-4.292,11.261,11.261,0,0,1,.849-4.246,9.326,9.326,0,0,1,2.135-3.127,8.939,8.939,0,0,1,3.057-1.911,9.723,9.723,0,0,1,3.637-.6,7.65,7.65,0,0,1,3.443.828,9.718,9.718,0,0,1,2.477,1.795l-2.356,2.654a6.872,6.872,0,0,0-1.6-1.165,4.457,4.457,0,0,0-1.992-.472,4.513,4.513,0,0,0-2.544.7,5.112,5.112,0,0,0-1.857,2.132,7.951,7.951,0,0,0-.735,3.378,8.64,8.64,0,0,0,.548,3.457,4.919,4.919,0,0,0,1.682,2.234,4.505,4.505,0,0,0,2.579.81,4.709,4.709,0,0,0,2.255-.485,6.6,6.6,0,0,0,1.758-1.276l2.268,2.728a8.241,8.241,0,0,1-2.925,2.057A8.85,8.85,0,0,1-675.5-534.849Z" fill="#354593"/>
    <path id="패스_148" data-name="패스 148" d="M-666.241-534.91l1.729-19.24,4.39.4-.67,7.458,7.082.636.67-7.458,4.362.392-1.729,19.241-4.362-.392.728-8.1-7.082-.637-.728,8.1Z" fill="#354593"/>
    <path id="패스_149" data-name="패스 149" d="M-638.021-531.241a9.154,9.154,0,0,1-4.47-1.967,8.226,8.226,0,0,1-2.592-3.961,11.888,11.888,0,0,1-.247-5.535,11.57,11.57,0,0,1,2.012-5.109,7.964,7.964,0,0,1,3.714-2.811,9.48,9.48,0,0,1,4.856-.368,9.392,9.392,0,0,1,4.49,1.93,8.11,8.11,0,0,1,2.595,3.857,11.488,11.488,0,0,1,.258,5.472,11.893,11.893,0,0,1-2.021,5.16,8.274,8.274,0,0,1-3.716,2.915A9.14,9.14,0,0,1-638.021-531.241Zm.6-3.616a3.877,3.877,0,0,0,2.53-.385,5.1,5.1,0,0,0,1.94-1.945,9.35,9.35,0,0,0,1.119-3.28,9.047,9.047,0,0,0-.01-3.415,4.754,4.754,0,0,0-1.22-2.39,4.056,4.056,0,0,0-2.28-1.128,4.041,4.041,0,0,0-2.522.333,4.659,4.659,0,0,0-1.913,1.87,9.24,9.24,0,0,0-1.1,3.231,9.543,9.543,0,0,0-.012,3.464,5.007,5.007,0,0,0,1.2,2.464A3.87,3.87,0,0,0-637.422-534.857Z" fill="#354593"/>
    <path id="패스_150" data-name="패스 150" d="M-617.535-527.039a10.03,10.03,0,0,1-3.35-1.455,8.476,8.476,0,0,1-2.438-2.533,8.824,8.824,0,0,1-1.235-3.5,11.659,11.659,0,0,1,.284-4.329,11.3,11.3,0,0,1,1.727-3.972,9.316,9.316,0,0,1,2.748-2.6,8.92,8.92,0,0,1,3.392-1.221,9.71,9.71,0,0,1,3.681.184,7.663,7.663,0,0,1,3.191,1.537,9.723,9.723,0,0,1,2.041,2.279l-2.864,2.1a6.872,6.872,0,0,0-1.315-1.477,4.455,4.455,0,0,0-1.846-.882,4.509,4.509,0,0,0-2.634.146,5.109,5.109,0,0,0-2.267,1.69,7.966,7.966,0,0,0-1.432,3.147,8.684,8.684,0,0,0-.2,3.495,4.933,4.933,0,0,0,1.173,2.539,4.5,4.5,0,0,0,2.35,1.337,4.7,4.7,0,0,0,2.306,0,6.569,6.569,0,0,0,1.988-.875l1.639,3.145a8.2,8.2,0,0,1-3.293,1.392A8.842,8.842,0,0,1-617.535-527.039Z" fill="#354593"/>
    <path id="패스_151" data-name="패스 151" d="M-602.049-522.735a9.152,9.152,0,0,1-4.161-2.555,8.238,8.238,0,0,1-2.03-4.276,11.9,11.9,0,0,1,.507-5.519,11.572,11.572,0,0,1,2.685-4.788,7.981,7.981,0,0,1,4.061-2.281,9.482,9.482,0,0,1,4.862.295,9.376,9.376,0,0,1,4.187,2.522,8.1,8.1,0,0,1,2.047,4.172,11.505,11.505,0,0,1-.487,5.456,11.894,11.894,0,0,1-2.7,4.839,8.276,8.276,0,0,1-4.078,2.384A9.144,9.144,0,0,1-602.049-522.735Zm1.085-3.5a3.873,3.873,0,0,0,2.56-.037,5.1,5.1,0,0,0,2.184-1.665,9.327,9.327,0,0,0,1.555-3.1,9.041,9.041,0,0,0,.453-3.383,4.755,4.755,0,0,0-.885-2.534,4.051,4.051,0,0,0-2.105-1.428,4.05,4.05,0,0,0-2.543-.012,4.655,4.655,0,0,0-2.149,1.593,9.247,9.247,0,0,0-1.527,3.052,9.51,9.51,0,0,0-.481,3.431,5,5,0,0,0,.848,2.6A3.875,3.875,0,0,0-600.964-526.237Z" fill="#354593"/>
    <path id="패스_152" data-name="패스 152" d="M-589.968-519.127l6.943-18.027,4.112,1.584-5.661,14.7,7.468,2.876-1.281,3.324Z" fill="#354593"/>
    <path id="패스_153" data-name="패스 153" d="M-578.077-514.606l13.767-14.956,4.773,2.175-2.253,20.2L-566-509.1l1.625-10.088q.221-1.527.525-3.174t.562-3.188l-.1-.045q-.981,1.239-2.03,2.532t-2.033,2.474l-6.546,7.846Zm5.69-2.578,1.359-2.981,8.759,3.991-1.358,2.981Z" fill="#354593"/>
    <path id="패스_154" data-name="패스 154" d="M-558.655-505.447l7.322-13.981-4.91-2.571,1.64-3.132,13.749,7.2-1.641,3.133-4.91-2.572-7.322,13.981Z" fill="#354593"/>
    <path id="패스_155" data-name="패스 155" d="M-547.287-499.33l10.012-16.521,10.706,6.488-1.832,3.024-6.938-4.2-2.089,3.447,5.874,3.559-1.846,3.046-5.873-3.559-2.4,3.958,7.192,4.358-1.846,3.046Z" fill="#354593"/>
  </g>
</svg>
