<svg xmlns="http://www.w3.org/2000/svg" width="49.307" height="49.307" viewBox="0 0 49.307 49.307">
  <g id="그룹_19" data-name="그룹 19" transform="translate(-1558.969 -231.575)">
    <g id="그룹_18" data-name="그룹 18" transform="translate(1558.969 231.575)">
      <path id="패스_23" data-name="패스 23" d="M1583.623,236.017c6.583,0,7.363.025,9.962.143a13.641,13.641,0,0,1,4.578.849,8.163,8.163,0,0,1,4.679,4.679,13.642,13.642,0,0,1,.849,4.577c.119,2.6.144,3.38.144,9.962s-.025,7.362-.144,9.962a13.643,13.643,0,0,1-.849,4.578,8.163,8.163,0,0,1-4.679,4.679,13.643,13.643,0,0,1-4.578.849c-2.6.119-3.379.144-9.962.144s-7.363-.025-9.962-.144a13.645,13.645,0,0,1-4.578-.849,8.168,8.168,0,0,1-4.679-4.679,13.639,13.639,0,0,1-.849-4.577c-.118-2.6-.144-3.38-.144-9.962s.026-7.362.144-9.962a13.638,13.638,0,0,1,.849-4.577,8.168,8.168,0,0,1,4.679-4.679,13.643,13.643,0,0,1,4.578-.849c2.6-.118,3.38-.143,9.962-.143m0-4.442c-6.7,0-7.535.028-10.165.148a18.089,18.089,0,0,0-5.985,1.146,12.606,12.606,0,0,0-7.21,7.21,18.09,18.09,0,0,0-1.146,5.984c-.12,2.63-.148,3.469-.148,10.165s.028,7.535.148,10.165a18.093,18.093,0,0,0,1.146,5.984,12.607,12.607,0,0,0,7.21,7.21,18.105,18.105,0,0,0,5.985,1.146c2.63.12,3.469.148,10.165.148s7.535-.028,10.164-.148a18.1,18.1,0,0,0,5.985-1.146,12.608,12.608,0,0,0,7.21-7.21,18.1,18.1,0,0,0,1.146-5.984c.12-2.63.148-3.469.148-10.165s-.028-7.535-.148-10.165a18.1,18.1,0,0,0-1.146-5.984,12.608,12.608,0,0,0-7.21-7.21,18.088,18.088,0,0,0-5.985-1.146c-2.629-.12-3.469-.148-10.164-.148Z" transform="translate(-1558.969 -231.575)" fill="#354593"/>
      <path id="패스_24" data-name="패스 24" d="M1592.3,252.251a12.66,12.66,0,1,0,12.66,12.66A12.66,12.66,0,0,0,1592.3,252.251Zm0,20.878a8.218,8.218,0,1,1,8.218-8.218A8.218,8.218,0,0,1,1592.3,273.129Z" transform="translate(-1567.651 -240.257)" fill="#354593"/>
      <circle id="타원_8" data-name="타원 8" cx="2.958" cy="2.958" r="2.958" transform="translate(34.855 8.535)" fill="#354593"/>
    </g>
  </g>
</svg>
