<svg xmlns="http://www.w3.org/2000/svg" xmlns:xlink="http://www.w3.org/1999/xlink" width="367.669" height="420.562" viewBox="0 0 367.669 420.562">
  <defs>
    <linearGradient id="linear-gradient" y1="0.5" x2="1" y2="0.5" gradientUnits="objectBoundingBox">
      <stop offset="0" stop-color="#c44f97"/>
      <stop offset="1" stop-color="#815a9f"/>
    </linearGradient>
  </defs>
  <g id="그룹_48" data-name="그룹 48" transform="translate(-9108.088 1316.081)">
    <path id="패스_202" data-name="패스 202" d="M9475.757-1291.421v345.067A24.658,24.658,0,0,1,9451.1-921.7h-110.69a26.327,26.327,0,0,0-14.226,4.174l-32.56,20.908a6.9,6.9,0,0,1-7.457,0l-32.557-20.908a26.325,26.325,0,0,0-14.225-4.174H9132.748a24.66,24.66,0,0,1-24.66-24.66v-345.067a24.658,24.658,0,0,1,24.657-24.658H9451.1A24.659,24.659,0,0,1,9475.757-1291.421Z" fill="#fdffff"/>
    <g id="그룹_41" data-name="그룹 41" transform="translate(9449.247 -1289.595)">
      <circle id="타원_12" data-name="타원 12" cx="1.581" cy="1.581" r="1.581" transform="translate(0)"/>
      <circle id="타원_13" data-name="타원 13" cx="1.581" cy="1.581" r="1.581" transform="translate(0 5.703)"/>
      <circle id="타원_14" data-name="타원 14" cx="1.581" cy="1.581" r="1.581" transform="translate(0 11.405)"/>
    </g>
    <g id="그룹_45" data-name="그룹 45" transform="translate(9136.384 -957.402)">
      <path id="패스_203" data-name="패스 203" d="M9671,534.451a.966.966,0,0,0-.841-.491h-18.952a.964.964,0,0,0-.682,1.645l6.772,6.772,2.06,9.061a.964.964,0,0,0,.787.737.939.939,0,0,0,.153.013.962.962,0,0,0,.824-.465l9.862-16.3A.964.964,0,0,0,9671,534.451Zm-17.467,1.437h13.052l-8.253,4.8Zm7.175,12.8-1.436-6.315,8.108-4.715Z" transform="translate(-9572.937 -532.279)"/>
      <g id="그룹_42" data-name="그룹 42" transform="translate(0 1.057)">
        <path id="패스_204" data-name="패스 204" d="M9264.411,550.236a1,1,0,0,1-.624-.217c-.7-.554-4.187-3.329-4.479-3.587l-.227-.2c-2.077-1.83-4.431-3.905-5.344-6.641a7.243,7.243,0,0,1,.934-6.486,5.632,5.632,0,0,1,4.555-2.343,8.352,8.352,0,0,0,10.372,0,5.632,5.632,0,0,1,4.556,2.344,7.247,7.247,0,0,1,.933,6.487c-.912,2.734-3.266,4.808-5.342,6.638l-.228.2c-.292.258-3.783,3.033-4.479,3.587A1,1,0,0,1,9264.411,550.236Z" transform="translate(-9253.358 -530.761)" fill="#ff0037"/>
        <path id="패스_205" data-name="패스 205" d="M9281.679,545.223a5.4,5.4,0,0,1-.276,1.733c-.748,2.247-2.895,4.138-4.789,5.805l-.225.2c-.185.163-2.212,1.777-3.777,3.026-1.571-1.249-3.6-2.867-3.778-3.026l-.229-.2c-1.892-1.671-4.042-3.562-4.79-5.81a5.412,5.412,0,0,1,.665-4.772,3.64,3.64,0,0,1,2.978-1.535h.136c2.542,0,3.6,1.135,3.94,1.623.053.075.079.127.083.132.014.026.027.053.04.075l.1.163a1,1,0,0,0,1.715,0l.092-.163c.014-.018.026-.048.035-.062a1.07,1.07,0,0,1,.089-.141c.347-.5,1.433-1.676,4.076-1.627a3.635,3.635,0,0,1,2.978,1.535A5.173,5.173,0,0,1,9281.679,545.223Z" transform="translate(-9261.557 -538.722)" fill="#ff0037"/>
      </g>
      <g id="그룹_43" data-name="그룹 43" transform="translate(39.583 0.717)">
        <path id="패스_206" data-name="패스 206" d="M9475.4,548.794a1.012,1.012,0,0,1-.1-.006l-5.441-.588a9.89,9.89,0,1,1,5.509-4.959l.978,4.379a.965.965,0,0,1-.941,1.174Zm-8.929-17.854a7.963,7.963,0,1,0,2.905,15.38.95.95,0,0,1,.456-.061l4.334.468-.76-3.4a.949.949,0,0,1-.023-.21v0a.97.97,0,0,1,.114-.455,7.863,7.863,0,0,0,.938-3.751A7.974,7.974,0,0,0,9466.467,530.94Z" transform="translate(-9456.574 -529.012)"/>
      </g>
      <g id="그룹_44" data-name="그룹 44" transform="translate(297.633 0)">
        <path id="패스_207" data-name="패스 207" d="M10782.333,544.736a.963.963,0,0,1-.963-.964V526.3a.964.964,0,0,1,.964-.964h15.356a.964.964,0,0,1,.963.964v17.476a.963.963,0,0,1-1.628.7l-7.012-6.69-7.014,6.69A.966.966,0,0,1,10782.333,544.736Zm.965-17.476v14.261l6.051-5.771a.963.963,0,0,1,1.33,0l6.048,5.77V527.26Z" transform="translate(-10781.37 -525.332)"/>
      </g>
    </g>
    <g id="그룹_46" data-name="그룹 46" transform="translate(9132.375 -1305.947)">
      <path id="패스_208" data-name="패스 208" d="M9256.406-1216.783a23.493,23.493,0,0,1-9.2-1.858,23.551,23.551,0,0,1-7.512-5.065,23.549,23.549,0,0,1-5.065-7.512,23.492,23.492,0,0,1-1.857-9.2,23.49,23.49,0,0,1,1.857-9.2,23.547,23.547,0,0,1,5.065-7.513,23.549,23.549,0,0,1,7.512-5.065,23.491,23.491,0,0,1,9.2-1.858,23.482,23.482,0,0,1,9.2,1.858,23.568,23.568,0,0,1,7.514,5.065,23.557,23.557,0,0,1,5.063,7.513,23.474,23.474,0,0,1,1.858,9.2,23.475,23.475,0,0,1-1.858,9.2,23.56,23.56,0,0,1-5.063,7.512,23.57,23.57,0,0,1-7.514,5.065A23.485,23.485,0,0,1,9256.406-1216.783Zm0-45.76a22.15,22.15,0,0,0-22.125,22.125,22.15,22.15,0,0,0,22.125,22.125,22.15,22.15,0,0,0,22.124-22.125A22.149,22.149,0,0,0,9256.406-1262.543Z" transform="translate(-9232.771 1264.053)" fill="url(#linear-gradient)"/>
    </g>
    <text id="pice_of_dessert" transform="translate(9186.526 -1282.197)" font-size="10" font-family="SegoeUI, Segoe UI"><tspan x="0" y="0">pice_of_dessert</tspan></text>
    <g id="그룹_47" data-name="그룹 47" transform="translate(9143.633 -1296.371)">
      <path id="패스_209" data-name="패스 209" d="M9314.615-1192.174a10.363,10.363,0,0,0-1.873-3.107c-.067.1-.135.208-.208.31-1.581,2.193-4.188,3.038-5.927,1.97-.062-.038-.127-.073-.187-.117a3.019,3.019,0,0,1-.771-.82,4.856,4.856,0,0,1,.151-4.854,3.859,3.859,0,0,0-2.813.981l-12.128,10.845a.839.839,0,0,0-.282.695.783.783,0,0,0,.037.2l.791,7.559a1.744,1.744,0,0,0,.731,1.245,1.738,1.738,0,0,0,1.249.3,1.664,1.664,0,0,0,.17-.033l20.064-4.927a2.447,2.447,0,0,0,1.843-2.62l-.756-7.215s0-.009,0-.013A1.41,1.41,0,0,0,9314.615-1192.174Zm-3.3,6.714a2.156,2.156,0,0,0,.476-.124c.92-.354,1.641-1.335,2.206-3.025l.436,4.167a1.408,1.408,0,0,1-1.062,1.509l-20.063,4.927a.7.7,0,0,1-.579-.109.7.7,0,0,1-.3-.507l-.686-6.554a5.627,5.627,0,0,0,3.919.4,2.258,2.258,0,0,0,1.474-1.061,1.076,1.076,0,0,1,.917-.573,1.438,1.438,0,0,1,.931.22,3.589,3.589,0,0,0,2.926.232,2.983,2.983,0,0,0,2.056-1.676,1.258,1.258,0,0,1,1.2-.859" transform="translate(-9290.574 1201.933)" fill="#354492"/>
      <path id="패스_210" data-name="패스 210" d="M9372.826-1213.813a2.943,2.943,0,0,0-.538-.5,2.994,2.994,0,0,0-.542-.3c-1.723-.762-4.095.109-5.571,2.157a6.605,6.605,0,0,0-.448.712,4.857,4.857,0,0,0-.151,4.854,3.007,3.007,0,0,0,.772.82c.06.043.123.078.187.117,1.738,1.067,4.346.222,5.927-1.971.073-.1.141-.206.208-.31C9373.912-1210.185,9373.953-1212.474,9372.826-1213.813Zm-5.989,2.231c.059-.093.11-.187.176-.278a4.189,4.189,0,0,1,3.8-1.976,7.2,7.2,0,0,0-1.967,2.884,4.571,4.571,0,0,0-.169.641,4.867,4.867,0,0,1-2.23,2.869A3.935,3.935,0,0,1,9366.837-1211.582Zm5.086,2.568a5.262,5.262,0,0,1-.3.478c-1.122,1.557-2.829,2.309-4.094,1.906a5.846,5.846,0,0,0,2.426-3.454,2.854,2.854,0,0,1,.075-.3,6.057,6.057,0,0,1,1.984-2.792C9372.846-1212.231,9372.808-1210.537,9371.923-1209.013Z" transform="translate(-9350.5 1214.893)" fill="#354492"/>
    </g>
  </g>
</svg>
