<svg xmlns="http://www.w3.org/2000/svg" width="414.945" height="415.255" viewBox="0 0 414.945 415.255">
  <g id="그룹_26" data-name="그룹 26" transform="translate(-930.866 1400.196)">
    <g id="그룹_25" data-name="그룹 25">
      <path id="패스_65" data-name="패스 65" d="M961.229-1300.832l3.438-5.265c2.139-3.276,5.1-5.215,8.793-2.8,3.558,2.323,3.34,6.079,1.267,9.254l-1.142,1.748,4.964,3.242-2.349,3.6Zm10.546-.48c1.142-1.749.869-3.13-.6-4.088-1.507-.985-2.659-.361-3.788,1.367l-.958,1.467,4.321,2.821Z" fill="rgba(53,69,147,0.73)"/>
      <path id="패스_66" data-name="패스 66" d="M971.582-1316.034l2.592-3.426,14.255,10.789-2.592,3.425Z" fill="rgba(53,69,147,0.73)"/>
      <path id="패스_67" data-name="패스 67" d="M984.151-1317.657c-4.491-3.905-4.449-9.148-1.473-12.571a7.607,7.607,0,0,1,5.316-2.566l.6,3.48a4.532,4.532,0,0,0-3.1,1.441c-1.512,1.739-1.2,4.524,1.429,6.807,2.681,2.331,5.308,2.454,6.962.552a4.6,4.6,0,0,0,1.005-3.643l3.508.061a7.43,7.43,0,0,1-1.833,6.134C993.59-1314.539,988.716-1313.689,984.151-1317.657Z" fill="rgba(53,69,147,0.73)"/>
      <path id="패스_68" data-name="패스 68" d="M989.957-1337.709l8.131-7.893,2.492,2.567-5.048,4.9,2.309,2.377,4.289-4.164,2.509,2.584-4.29,4.164,2.642,2.722,5.238-5.084,2.508,2.584-8.321,8.077Z" fill="rgba(53,69,147,0.73)"/>
      <path id="패스_69" data-name="패스 69" d="M1012.521-1346.509c-3.523-4.68-2.868-9.319,1.026-12.249s8.547-2.256,12.054,2.4c3.522,4.681,2.983,9.473-.91,12.4S1016.042-1341.829,1012.521-1346.509Zm9.589-7.217c-2.079-2.762-4.475-3.512-6.355-2.1s-1.8,3.911.275,6.673,4.558,3.66,6.437,2.246S1024.189-1350.964,1022.11-1353.726Z" fill="rgba(53,69,147,0.73)"/>
      <path id="패스_70" data-name="패스 70" d="M1024.9-1366.427l9.691-6,1.883,3.04-6.039,3.74,2.059,3.325,5.182-3.209,1.883,3.04-5.182,3.209,3.588,5.794-3.651,2.261Z" fill="rgba(53,69,147,0.73)"/>
      <path id="패스_71" data-name="패스 71" d="M1045.29-1378.224l4.66-2.158c4.943-2.289,9.319-1.407,11.931,4.232s.525,9.7-4.2,11.889l-4.877,2.259Zm10.483,11.039c2.612-1.21,3.908-3.265,2.123-7.119s-4.13-4.064-6.744-2.853l-.522.242,4.619,9.973Z" fill="rgba(53,69,147,0.73)"/>
      <path id="패스_72" data-name="패스 72" d="M1063.307-1386.192l10.666-3.817,1.2,3.367-6.621,2.369,1.115,3.119,5.627-2.014,1.214,3.39-5.627,2.013,1.277,3.571,6.87-2.458,1.213,3.389-10.915,3.906Z" fill="rgba(53,69,147,0.73)"/>
      <path id="패스_73" data-name="패스 73" d="M1082.555-1376.343l1.609-3.48a7.1,7.1,0,0,0,4.642.656c1.531-.406,2.1-1.176,1.85-2.1-.264-1-1.3-1.07-2.952-1.3l-2.449-.344a5.228,5.228,0,0,1-4.757-3.8c-.768-2.9,1.214-5.907,4.879-6.879a8.311,8.311,0,0,1,6.215.785l-1.375,3.145a5.806,5.806,0,0,0-3.9-.381c-1.275.338-1.905,1.051-1.666,1.956.259.974,1.424,1.062,3.115,1.259l2.384.287c2.362.292,4.019,1.392,4.665,3.827.762,2.876-.98,6.044-5.155,7.151A9.987,9.987,0,0,1,1082.555-1376.343Z" fill="rgba(53,69,147,0.73)"/>
      <path id="패스_74" data-name="패스 74" d="M1097.666-1380.263l1.888-3.338a7.1,7.1,0,0,0,4.574,1.032c1.559-.281,2.186-1,2.016-1.947-.183-1.016-1.21-1.173-2.837-1.539l-2.413-.542a5.228,5.228,0,0,1-4.433-4.178c-.53-2.953,1.691-5.79,5.424-6.46a8.312,8.312,0,0,1,6.132,1.288l-1.627,3.024a5.807,5.807,0,0,0-3.857-.7c-1.3.233-1.985.893-1.819,1.814.178.992,1.332,1.175,3,1.509l2.353.48c2.331.483,3.892,1.714,4.337,4.195.527,2.929-1.467,5.945-5.719,6.708A9.994,9.994,0,0,1,1097.666-1380.263Z" fill="rgba(53,69,147,0.73)"/>
      <path id="패스_75" data-name="패스 75" d="M1113.026-1382.931l2.154-3.175a7.1,7.1,0,0,0,4.476,1.4c1.577-.152,2.261-.821,2.168-1.777-.1-1.027-1.11-1.268-2.7-1.765l-2.362-.737a5.23,5.23,0,0,1-4.078-4.527c-.288-2.987,2.157-5.634,5.933-6a8.309,8.309,0,0,1,6.008,1.784l-1.868,2.881a5.809,5.809,0,0,0-3.787-1.009c-1.315.126-2.053.728-1.963,1.66.1,1,1.233,1.28,2.87,1.749l2.308.67c2.283.672,3.74,2.027,3.982,4.536.286,2.963-1.948,5.807-6.249,6.222A10,10,0,0,1,1113.026-1382.931Z" fill="rgba(53,69,147,0.73)"/>
      <path id="패스_76" data-name="패스 76" d="M1130.009-1400.017l11.329-.179.057,3.576-7.034.112.053,3.312,5.977-.095.057,3.6-5.976.1.06,3.793,7.3-.116.058,3.6-11.593.184Z" fill="rgba(53,69,147,0.73)"/>
      <path id="패스_77" data-name="패스 77" d="M1147.3-1400.036l6.536.479c3.807.279,6.87,1.827,6.555,6.137a5.288,5.288,0,0,1-3.443,4.922l3.457,7.354-4.788-.351-2.82-6.513-2.06-.151-.459,6.273L1146-1382.2Zm5.6,8.642c2.036.149,3.2-.656,3.325-2.332s-.939-2.307-2.974-2.456l-1.915-.141-.351,4.789Z" fill="rgba(53,69,147,0.73)"/>
      <path id="패스_78" data-name="패스 78" d="M1168.667-1394.322l-4.764-.761.565-3.53,13.791,2.2-.564,3.531-4.787-.765-2.255,14.124-4.242-.678Z" fill="rgba(53,69,147,0.73)"/>
      <path id="패스_79" data-name="패스 79" d="M1189.807-1393.794l6.045,1.735c3.759,1.079,6.484,3.334,5.265,7.579-1.172,4.084-4.826,4.983-8.471,3.936l-2.007-.576-1.636,5.7-4.13-1.186Zm3.565,9.938c2.007.576,3.247-.092,3.731-1.776.5-1.73-.439-2.648-2.423-3.218l-1.684-.483-1.424,4.96Z" fill="rgba(53,69,147,0.73)"/>
      <path id="패스_80" data-name="패스 80" d="M1207.389-1388.379l4.036,1.47-6.115,16.8-4.037-1.469Z" fill="rgba(53,69,147,0.73)"/>
      <path id="패스_81" data-name="패스 81" d="M1212.627-1376.842c2.414-5.442,7.439-6.942,11.586-5.1a7.605,7.605,0,0,1,4.015,4.329l-3.151,1.595a4.534,4.534,0,0,0-2.288-2.538c-2.106-.934-4.677.184-6.089,3.366-1.44,3.247-.785,5.8,1.519,6.818a4.6,4.6,0,0,0,3.777-.109l.973,3.372a7.436,7.436,0,0,1-6.4.048C1212.419-1366.9,1210.174-1371.313,1212.627-1376.842Z" fill="rgba(53,69,147,0.73)"/>
      <path id="패스_82" data-name="패스 82" d="M1233.5-1377.163l9.925,5.467-1.726,3.133-6.161-3.394-1.6,2.9,5.237,2.884-1.738,3.154-5.236-2.884-1.829,3.322,6.392,3.521-1.738,3.154-10.155-5.594Z" fill="rgba(53,69,147,0.73)"/>
      <path id="패스_83" data-name="패스 83" d="M1248.528-1358.155c3.448-4.736,8.077-5.464,12.016-2.6s4.654,7.516,1.221,12.232c-3.448,4.736-8.189,5.62-12.129,2.752S1245.08-1353.419,1248.528-1358.155Zm9.705,7.065c2.035-2.8,2.051-5.307.149-6.691s-4.268-.583-6.3,2.212-2.17,5.428-.268,6.813S1256.2-1348.3,1258.233-1351.09Z" fill="rgba(53,69,147,0.73)"/>
      <path id="패스_84" data-name="패스 84" d="M1271.194-1352.134l8.575,7.516-2.358,2.69-5.344-4.684-2.579,2.942,4.585,4.019-2.357,2.69-4.585-4.019-4.494,5.126-3.231-2.832Z" fill="rgba(53,69,147,0.73)"/>
      <path id="패스_85" data-name="패스 85" d="M1288.441-1336.073l3.428,3.823c3.637,4.057,4.075,8.5-.552,12.648s-9.123,3.345-12.6-.533l-3.589-4Zm-7.487,13.256c1.923,2.144,4.268,2.782,7.43-.054s2.677-5.14.754-7.284l-.385-.429-8.184,7.338Z" fill="rgba(53,69,147,0.73)"/>
      <path id="패스_86" data-name="패스 86" d="M1301.327-1321.206l6.784,9.075-2.864,2.141-4.212-5.633-2.653,1.984,3.579,4.787-2.884,2.156-3.579-4.787-3.037,2.271,4.369,5.845-2.884,2.156L1287-1310.5Z" fill="rgba(53,69,147,0.73)"/>
      <path id="패스_87" data-name="패스 87" d="M1297.561-1299.932l3.8.511a7.1,7.1,0,0,0,.744,4.631c.839,1.343,1.743,1.656,2.557,1.147.875-.547.639-1.56.374-3.206l-.4-2.443a5.23,5.23,0,0,1,2.231-5.669c2.544-1.591,6.005-.584,8.016,2.632a8.313,8.313,0,0,1,1.085,6.173l-3.412-.386a5.815,5.815,0,0,0-.787-3.84c-.7-1.12-1.568-1.511-2.362-1.015-.855.535-.6,1.674-.285,3.349l.431,2.364c.418,2.343-.145,4.252-2.282,5.588-2.524,1.578-6.066.848-8.357-2.816A9.992,9.992,0,0,1,1297.561-1299.932Z" fill="rgba(53,69,147,0.73)"/>
      <path id="패스_88" data-name="패스 88" d="M1305.761-1286.652l3.747.817a7.1,7.1,0,0,0,.365,4.676c.729,1.407,1.6,1.792,2.456,1.351.916-.475.763-1.5.632-3.165l-.2-2.467a5.233,5.233,0,0,1,2.682-5.469c2.665-1.379,6.033-.095,7.776,3.273a8.312,8.312,0,0,1,.58,6.24l-3.369-.662a5.809,5.809,0,0,0-.473-3.89c-.606-1.172-1.439-1.633-2.271-1.2-.9.463-.729,1.621-.555,3.315l.237,2.39c.227,2.369-.488,4.226-2.726,5.384-2.644,1.368-6.115.353-8.1-3.483A10,10,0,0,1,1305.761-1286.652Z" fill="rgba(53,69,147,0.73)"/>
      <path id="패스_89" data-name="패스 89" d="M1312.858-1272.738l3.667,1.121a7.093,7.093,0,0,0-.018,4.688c.609,1.461,1.45,1.916,2.336,1.547.952-.4.883-1.435.889-3.1l.006-2.474a5.23,5.23,0,0,1,3.121-5.229c2.767-1.156,6.017.4,7.478,3.9a8.306,8.306,0,0,1,.068,6.265l-3.3-.935a5.8,5.8,0,0,0-.154-3.915c-.507-1.217-1.3-1.745-2.164-1.384-.929.388-.858,1.555-.824,3.257l.041,2.4c.031,2.379-.833,4.17-3.157,5.14-2.745,1.147-6.12-.147-7.785-4.133A9.988,9.988,0,0,1,1312.858-1272.738Z" fill="rgba(53,69,147,0.73)"/>
      <path id="패스_90" data-name="패스 90" d="M1334.206-1261.528l3.471,10.781-3.4,1.1-2.155-6.693-3.152,1.015,1.831,5.688-3.427,1.1-1.831-5.688-3.609,1.162,2.236,6.944-3.427,1.1-3.551-11.033Z" fill="rgba(53,69,147,0.73)"/>
      <path id="패스_91" data-name="패스 91" d="M1339.282-1245l1.451,6.39c.843,3.722.257,7.1-3.957,8.059a5.285,5.285,0,0,1-5.711-1.854l-6.024,5.452-1.061-4.681,5.4-4.6-.456-2.013-6.133,1.391-.95-4.189Zm-6.63,7.878c.453,1.99,1.562,2.87,3.2,2.5s1.932-1.57,1.481-3.56l-.425-1.872-4.681,1.062Z" fill="rgba(53,69,147,0.73)"/>
      <path id="패스_92" data-name="패스 92" d="M1340.048-1222.877l-.66-4.778,3.543-.49,1.909,13.837-3.543.489-.662-4.8-14.169,1.955-.587-4.255Z" fill="rgba(53,69,147,0.73)"/>
      <path id="패스_93" data-name="패스 93" d="M1345.7-1202.51l.109,6.288c.066,3.912-1.294,7.177-5.71,7.253-4.249.073-6.177-3.159-6.242-6.951l-.036-2.089-5.928.1-.075-4.3Zm-8.463,6.315c.037,2.088,1.038,3.08,2.789,3.049,1.8-.03,2.405-1.193,2.37-3.257l-.031-1.752-5.16.088Z" fill="rgba(53,69,147,0.73)"/>
      <path id="패스_94" data-name="패스 94" d="M1345.675-1184.146l-.219,4.291-17.858-.909.218-4.291Z" fill="rgba(53,69,147,0.73)"/>
      <path id="패스_95" data-name="패스 95" d="M1336.192-1175.762c5.911.7,8.827,5.057,8.292,9.562a7.6,7.6,0,0,1-2.949,5.113l-2.455-2.539a4.527,4.527,0,0,0,1.75-2.934c.271-2.288-1.555-4.414-5.012-4.823-3.527-.418-5.769.96-6.065,3.463a4.593,4.593,0,0,0,1.22,3.576l-2.936,1.924a7.432,7.432,0,0,1-1.935-6.1C1326.636-1173.027,1330.186-1176.473,1336.192-1175.762Z" fill="rgba(53,69,147,0.73)"/>
      <path id="패스_96" data-name="패스 96" d="M1342.654-1155.916l-2.29,11.092-3.5-.723,1.422-6.885-3.243-.67-1.208,5.851-3.525-.728,1.209-5.851-3.713-.766-1.476,7.143-3.524-.728,2.344-11.349Z" fill="rgba(53,69,147,0.73)"/>
      <path id="패스_97" data-name="패스 97" d="M1328.932-1135.936c5.54,1.9,7.6,6.106,6.019,10.715s-5.809,6.661-11.327,4.77c-5.54-1.9-7.781-6.168-6.2-10.778S1323.392-1137.835,1328.932-1135.936Zm-3.892,11.352c3.27,1.122,5.675.4,6.438-1.827s-.7-4.249-3.971-5.37-5.825-.474-6.588,1.751S1321.771-1125.7,1325.04-1124.584Z" fill="rgba(53,69,147,0.73)"/>
      <path id="패스_98" data-name="패스 98" d="M1329.839-1112.5l-4.668,10.4-3.263-1.464,2.909-6.481-3.569-1.6-2.5,5.562-3.263-1.464,2.5-5.562-6.218-2.79,1.759-3.92Z" fill="rgba(53,69,147,0.73)"/>
      <path id="패스_99" data-name="패스 99" d="M1319.528-1091.288l-2.655,4.4c-2.815,4.663-6.935,6.379-12.255,3.166s-5.862-7.745-3.17-12.2l2.78-4.6Zm-14.862-3.286c-1.488,2.465-1.413,4.893,2.222,7.089s5.7,1.057,7.185-1.407l.3-.493-9.406-5.682Z" fill="rgba(53,69,147,0.73)"/>
      <path id="패스_100" data-name="패스 100" d="M1309.08-1074.62l-6.7,9.14-2.886-2.115,4.158-5.673-2.672-1.958-3.534,4.821-2.9-2.128,3.533-4.822-3.059-2.242-4.314,5.886-2.9-2.128,6.853-9.353Z" fill="rgba(53,69,147,0.73)"/>
      <path id="패스_101" data-name="패스 101" d="M1287.62-1071.995l.621,3.784a7.107,7.107,0,0,0-4.211,2.063c-1.039,1.2-1.074,2.151-.349,2.781.778.677,1.677.155,3.175-.579l2.22-1.091a5.231,5.231,0,0,1,6.073.478c2.263,1.968,2.311,5.571-.177,8.433a8.309,8.309,0,0,1-5.585,2.84l-.628-3.376a5.807,5.807,0,0,0,3.442-1.873c.866-1,.988-1.941.281-2.555-.761-.661-1.775-.08-3.286.706l-2.133,1.1c-2.12,1.084-4.109,1.1-6.01-.55-2.246-1.953-2.583-5.553.252-8.813A9.988,9.988,0,0,1,1287.62-1071.995Z" fill="rgba(53,69,147,0.73)"/>
      <path id="패스_102" data-name="패스 102" d="M1277.316-1060.273l.314,3.822a7.1,7.1,0,0,0-4.362,1.718c-1.132,1.108-1.244,2.057-.574,2.743.722.738,1.661.289,3.211-.322l2.3-.908a5.228,5.228,0,0,1,6.014.964c2.1,2.144,1.855,5.739-.854,8.391a8.315,8.315,0,0,1-5.8,2.381l-.353-3.415a5.8,5.8,0,0,0,3.581-1.59c.943-.924,1.14-1.855.485-2.524-.7-.72-1.762-.222-3.331.44l-2.216.926c-2.2.91-4.182.77-5.945-1.031-2.081-2.127-2.127-5.742.96-8.763A10,10,0,0,1,1277.316-1060.273Z" fill="rgba(53,69,147,0.73)"/>
      <path id="패스_103" data-name="패스 103" d="M1266.094-1049.417l0,3.836a7.094,7.094,0,0,0-4.489,1.357c-1.218,1.012-1.408,1.949-.794,2.687.66.794,1.631.424,3.227-.059l2.367-.718a5.229,5.229,0,0,1,5.916,1.451c1.917,2.308,1.383,5.872-1.534,8.3a8.312,8.312,0,0,1-5.972,1.9l-.074-3.433a5.8,5.8,0,0,0,3.7-1.294c1.016-.843,1.288-1.755.69-2.475-.645-.776-1.739-.365-3.357.166l-2.284.743c-2.265.728-4.232.427-5.842-1.512-1.9-2.289-1.653-5.9,1.67-8.657A10,10,0,0,1,1266.094-1049.417Z" fill="rgba(53,69,147,0.73)"/>
      <path id="패스_104" data-name="패스 104" d="M1261.65-1025.72l-9.284,6.489-2.049-2.93,5.763-4.029-1.9-2.714-4.9,3.423-2.062-2.95,4.9-3.423-2.173-3.107-5.978,4.179-2.063-2.95,9.5-6.641Z" fill="rgba(53,69,147,0.73)"/>
      <path id="패스_105" data-name="패스 105" d="M1247.366-1016.014l-5.677,3.27c-3.307,1.905-6.711,2.342-8.868-1.4a5.289,5.289,0,0,1,.087-6.005l-6.985-4.146,4.159-2.4,5.987,3.808,1.789-1.031-3.138-5.448,3.722-2.144Zm-9.482-4.01c-1.769,1.018-2.281,2.338-1.443,3.794s2.071,1.383,3.838.365l1.663-.958-2.4-4.16Z" fill="rgba(53,69,147,0.73)"/>
      <path id="패스_106" data-name="패스 106" d="M1217.982-1000.952l-5.876,2.239c-3.657,1.393-7.189,1.223-8.761-2.9-1.513-3.97.871-6.882,4.415-8.232l1.952-.743-2.111-5.54,4.015-1.53Zm-8.815-5.811c-1.952.743-2.543,2.022-1.92,3.659.641,1.683,1.94,1.855,3.869,1.121l1.638-.624-1.838-4.823Z" fill="rgba(53,69,147,0.73)"/>
      <path id="패스_107" data-name="패스 107" d="M1200.665-994.738l-4.111,1.245-5.184-17.109,4.112-1.245Z" fill="rgba(53,69,147,0.73)"/>
      <path id="패스_108" data-name="패스 108" d="M1189.546-1000.82c1.332,5.8-1.788,10.015-6.209,11.03a7.61,7.61,0,0,1-5.808-1.055l1.564-3.166a4.527,4.527,0,0,0,3.352.658c2.246-.516,3.632-2.952,2.853-6.343-.795-3.462-2.848-5.109-5.3-4.545a4.6,4.6,0,0,0-2.956,2.354l-2.8-2.115a7.434,7.434,0,0,1,5.094-3.879C1183.752-1008.9,1188.192-1006.714,1189.546-1000.82Z" fill="rgba(53,69,147,0.73)"/>
      <path id="패스_109" data-name="패스 109" d="M1173.066-988.05l-11.214,1.584-.5-3.54,6.961-.983-.464-3.279-5.915.836-.5-3.564,5.916-.836-.53-3.754-7.223,1.021-.5-3.563,11.476-1.622Z" fill="rgba(53,69,147,0.73)"/>
      <path id="패스_110" data-name="패스 110" d="M1149.625-994.242c.093,5.857-3.167,9.222-8.039,9.3s-8.238-3.206-8.33-9.039c-.094-5.856,3.163-9.413,8.035-9.49S1149.532-1000.1,1149.625-994.242Zm-12,.191c.055,3.457,1.551,5.473,3.9,5.436s3.76-2.1,3.706-5.557-1.531-5.642-3.883-5.6S1137.569-997.507,1137.624-994.051Z" fill="rgba(53,69,147,0.73)"/>
      <path id="패스_111" data-name="패스 111" d="M1127.907-985.433l-11.364-.848.266-3.565,7.082.529.291-3.9-6.077-.454.265-3.565,6.077.454.507-6.8,4.283.32Z" fill="rgba(53,69,147,0.73)"/>
      <path id="패스_112" data-name="패스 112" d="M1104.469-987.884l-5.038-1c-5.345-1.057-8.364-4.345-7.159-10.443s5.281-8.155,10.39-7.145l5.275,1.043Zm-1.983-15.1c-2.825-.558-5.082.341-5.906,4.509s.949,5.716,3.775,6.275l.565.111,2.132-10.783Z" fill="rgba(53,69,147,0.73)"/>
      <path id="패스_113" data-name="패스 113" d="M1085.235-992.038l-10.868-3.183,1.005-3.431,6.747,1.976.931-3.178-5.733-1.679,1.011-3.454,5.734,1.68,1.065-3.638-7-2.051,1.012-3.453,11.121,3.257Z" fill="rgba(53,69,147,0.73)"/>
      <path id="패스_114" data-name="패스 114" d="M1075.464-1011.315l-3.35,1.869a7.106,7.106,0,0,0-3.37-3.261c-1.477-.572-2.388-.281-2.735.614-.372.963.424,1.632,1.623,2.791l1.779,1.718a5.232,5.232,0,0,1,1.613,5.875c-1.084,2.8-4.457,4.066-7.995,2.7a8.314,8.314,0,0,1-4.567-4.291l2.963-1.736a5.807,5.807,0,0,0,2.931,2.6c1.231.477,2.16.27,2.5-.6.364-.94-.527-1.7-1.779-2.851l-1.761-1.634c-1.739-1.625-2.433-3.49-1.523-5.84,1.075-2.776,4.348-4.315,8.377-2.755A10,10,0,0,1,1075.464-1011.315Z" fill="rgba(53,69,147,0.73)"/>
      <path id="패스_115" data-name="패스 115" d="M1060.933-1017.033l-3.491,1.59a7.1,7.1,0,0,0-3.094-3.526c-1.426-.691-2.358-.475-2.777.389-.449.929.29,1.661,1.39,2.914l1.634,1.859a5.232,5.232,0,0,1,1.128,5.988c-1.309,2.7-4.776,3.689-8.19,2.035a8.318,8.318,0,0,1-4.2-4.65l3.1-1.488a5.813,5.813,0,0,0,2.709,2.833c1.188.575,2.132.445,2.54-.4.439-.908-.387-1.735-1.541-2.988l-1.622-1.773c-1.6-1.762-2.14-3.677-1.041-5.946,1.3-2.679,4.686-3.946,8.575-2.061A9.989,9.989,0,0,1,1060.933-1017.033Z" fill="rgba(53,69,147,0.73)"/>
      <path id="패스_116" data-name="패스 116" d="M1046.92-1023.92l-3.608,1.3a7.1,7.1,0,0,0-2.8-3.766c-1.365-.805-2.311-.666-2.8.161-.525.889.152,1.679,1.146,3.017l1.477,1.985a5.23,5.23,0,0,1,.635,6.059c-1.524,2.584-5.059,3.287-8.326,1.36a8.307,8.307,0,0,1-3.808-4.976l3.2-1.231a5.8,5.8,0,0,0,2.469,3.044c1.136.671,2.088.618,2.563-.188.512-.869-.244-1.761-1.292-3.1l-1.471-1.9c-1.452-1.887-1.833-3.84-.552-6.011,1.511-2.564,4.99-3.549,8.712-1.355A10,10,0,0,1,1046.92-1023.92Z" fill="rgba(53,69,147,0.73)"/>
      <path id="패스_117" data-name="패스 117" d="M1023.123-1020.086l-9.247-6.547,2.066-2.919,5.741,4.064,1.914-2.7-4.878-3.454,2.08-2.939,4.879,3.454,2.191-3.1-5.956-4.216,2.08-2.939,9.464,6.7Z" fill="rgba(53,69,147,0.73)"/>
      <path id="패스_118" data-name="패스 118" d="M1009.151-1030.274l-4.995-4.24c-2.909-2.47-4.469-5.527-1.673-8.82a5.284,5.284,0,0,1,5.681-1.945l1.546-7.976,3.659,3.107-1.563,6.921,1.573,1.336,4.069-4.793,3.276,2.78Zm.574-10.28c-1.555-1.32-2.971-1.358-4.059-.077s-.6,2.416.952,3.736l1.464,1.243,3.107-3.659Z" fill="rgba(53,69,147,0.73)"/>
      <path id="패스_119" data-name="패스 119" d="M995.269-1047.479l3.4,3.423-2.537,2.519-9.84-9.91,2.537-2.519,3.415,3.44,10.15-10.077,3.026,3.048Z" fill="rgba(53,69,147,0.73)"/>
      <path id="패스_120" data-name="패스 120" d="M978.5-1060.363l-3.865-4.957c-2.4-3.084-3.281-6.509.2-9.224,3.349-2.611,6.832-1.189,9.163,1.8l1.283,1.646,4.674-3.644,2.642,3.387Zm2.963-10.13c-1.284-1.646-2.68-1.836-4.061-.759-1.418,1.107-1.2,2.4.067,4.026l1.077,1.381,4.068-3.172Z" fill="rgba(53,69,147,0.73)"/>
      <path id="패스_121" data-name="패스 121" d="M967.47-1075.073l-2.4-3.562,14.824-9.992,2.4,3.562Z" fill="rgba(53,69,147,0.73)"/>
      <path id="패스_122" data-name="패스 122" d="M970.016-1087.471c-5.151,2.986-10.1,1.248-12.373-2.677a7.606,7.606,0,0,1-.706-5.861l3.487.558a4.528,4.528,0,0,0,.36,3.4c1.156,1.994,3.893,2.6,6.905.854,3.073-1.783,4.04-4.23,2.776-6.41a4.6,4.6,0,0,0-3.122-2.131l1.194-3.3a7.429,7.429,0,0,1,5.21,3.722C976.023-1095.393,975.249-1090.505,970.016-1087.471Z" fill="rgba(53,69,147,0.73)"/>
      <path id="패스_123" data-name="패스 123" d="M952.939-1099.461l-4.826-10.249,3.236-1.523,2.995,6.362,3-1.411-2.545-5.407,3.257-1.533,2.546,5.407,3.43-1.616-3.108-6.6,3.257-1.534,4.938,10.488Z" fill="rgba(53,69,147,0.73)"/>
      <path id="패스_124" data-name="패스 124" d="M951.934-1123.695c-5.571,1.8-9.74-.329-11.239-4.963s.655-8.81,6.2-10.6c5.57-1.8,9.921.27,11.42,4.9S957.5-1125.5,951.934-1123.695Zm-3.693-11.413c-3.287,1.063-4.777,3.083-4.053,5.32s3.107,2.979,6.394,1.916,4.944-3.113,4.22-5.35S951.528-1136.172,948.241-1135.108Z" fill="rgba(53,69,147,0.73)"/>
      <path id="패스_125" data-name="패스 125" d="M937.134-1141.91l-2.5-11.125,3.489-.785,1.559,6.933,3.817-.858-1.337-5.949,3.49-.785,1.337,5.95,6.652-1.495.942,4.192Z" fill="rgba(53,69,147,0.73)"/>
      <path id="패스_126" data-name="패스 126" d="M932.662-1165.047l-.512-5.11c-.543-5.421,1.724-9.266,7.909-9.887s9.338,2.681,9.858,7.863l.536,5.349Zm13.866-6.287c-.288-2.866-1.8-4.764-6.031-4.34s-5.193,2.571-4.906,5.437l.058.573,10.937-1.1Z" fill="rgba(53,69,147,0.73)"/>
      <path id="패스_127" data-name="패스 127" d="M931.047-1184.6l-.181-11.329,3.576-.057.113,7.033,3.312-.053-.1-5.976,3.6-.058.095,5.977,3.793-.06-.116-7.3,3.6-.057.184,11.593Z" fill="rgba(53,69,147,0.73)"/>
      <path id="패스_128" data-name="패스 128" d="M946.6-1199.611l-2.774-2.648a7.1,7.1,0,0,0,2.122-4.182c.111-1.58-.436-2.364-1.393-2.432-1.029-.072-1.434.887-2.188,2.373l-1.117,2.207a5.228,5.228,0,0,1-5.138,3.273c-2.992-.21-5.2-3.059-4.933-6.841a8.311,8.311,0,0,1,2.753-5.63l2.532,2.319a5.807,5.807,0,0,0-1.622,3.567c-.092,1.317.379,2.144,1.312,2.209,1.006.071,1.466-1,2.2-2.54l1.042-2.164c1.04-2.141,2.617-3.354,5.131-3.177,2.968.208,5.4,2.881,5.1,7.19A9.994,9.994,0,0,1,946.6-1199.611Z" fill="rgba(53,69,147,0.73)"/>
      <path id="패스_129" data-name="패스 129" d="M947.781-1215.19l-2.549-2.865a7.1,7.1,0,0,0,2.454-4c.239-1.567-.243-2.392-1.192-2.537-1.02-.156-1.5.767-2.373,2.188l-1.292,2.109a5.229,5.229,0,0,1-5.387,2.845c-2.965-.452-4.933-3.471-4.362-7.22a8.31,8.31,0,0,1,3.2-5.388l2.336,2.517a5.81,5.81,0,0,0-1.906,3.424c-.2,1.305.2,2.168,1.13,2.309,1,.152,1.542-.882,2.4-2.354l1.215-2.073c1.21-2.049,2.88-3.129,5.372-2.75,2.942.449,5.153,3.311,4.5,7.581A9.993,9.993,0,0,1,947.781-1215.19Z" fill="rgba(53,69,147,0.73)"/>
      <path id="패스_130" data-name="패스 130" d="M935.37-1235.872l2.644-11.019,3.478.834-1.641,6.841,3.222.773,1.394-5.813,3.5.839-1.4,5.813,3.69.885,1.7-7.1,3.5.84-2.705,11.276Z" fill="rgba(53,69,147,0.73)"/>
      <path id="패스_131" data-name="패스 131" d="M939.638-1252.614l2.083-6.211c1.213-3.617,3.471-6.2,7.566-4.828a5.285,5.285,0,0,1,3.915,4.553l7.978-1.527-1.527,4.551-7.005,1.118-.656,1.956,5.96,2-1.365,4.072Zm9.757-3.284c.648-1.933.157-3.262-1.436-3.8s-2.467.337-3.115,2.271l-.611,1.82,4.551,1.526Z" fill="rgba(53,69,147,0.73)"/>
      <path id="패스_132" data-name="패스 132" d="M950.485-1271.907l-1.923,4.422-3.279-1.425,5.569-12.806,3.278,1.425-1.933,4.445,13.115,5.7L963.6-1266.2Z" fill="rgba(53,69,147,0.73)"/>
    </g>
  </g>
</svg>
