<svg id="그룹_20" data-name="그룹 20" xmlns="http://www.w3.org/2000/svg" width="32.029" height="32.029" viewBox="0 0 32.029 32.029">
  <ellipse id="타원_9" data-name="타원 9" cx="3.361" cy="3.361" rx="3.361" ry="3.361" transform="translate(11.388 17.107) rotate(-58.283)" fill="#fff"/>
  <path id="패스_26" data-name="패스 26" d="M1316.155,310.424a3.338,3.338,0,0,0-1.914-1.914,5.58,5.58,0,0,0-1.873-.347c-1.063-.048-1.382-.059-4.074-.059s-3.011.01-4.075.059a5.578,5.578,0,0,0-1.872.347,3.338,3.338,0,0,0-1.914,1.914,5.578,5.578,0,0,0-.347,1.872c-.048,1.063-.059,1.382-.059,4.075s.01,3.011.059,4.075a5.578,5.578,0,0,0,.347,1.872,3.339,3.339,0,0,0,1.914,1.914,5.579,5.579,0,0,0,1.872.347c1.063.049,1.382.059,4.075.059s3.011-.01,4.074-.059a5.581,5.581,0,0,0,1.873-.347,3.338,3.338,0,0,0,1.914-1.914,5.577,5.577,0,0,0,.347-1.872c.049-1.063.059-1.382.059-4.075s-.01-3.011-.059-4.075A5.577,5.577,0,0,0,1316.155,310.424Zm-7.86,11.125a5.178,5.178,0,1,1,5.178-5.178A5.178,5.178,0,0,1,1308.295,321.548Zm5.382-9.35a1.21,1.21,0,1,1,1.21-1.21A1.21,1.21,0,0,1,1313.677,312.2Z" transform="translate(-1292.28 -300.356)" fill="#fff"/>
  <path id="패스_27" data-name="패스 27" d="M1283.386,275.446a16.015,16.015,0,1,0,16.015,16.015A16.015,16.015,0,0,0,1283.386,275.446Zm10.023,20.172a7.4,7.4,0,0,1-.469,2.448,5.157,5.157,0,0,1-2.949,2.949,7.4,7.4,0,0,1-2.448.469c-1.076.049-1.419.061-4.157.061s-3.082-.012-4.157-.061a7.4,7.4,0,0,1-2.448-.469,5.156,5.156,0,0,1-2.949-2.949,7.4,7.4,0,0,1-.469-2.448c-.049-1.076-.06-1.419-.06-4.157s.011-3.082.06-4.157a7.4,7.4,0,0,1,.469-2.448,5.156,5.156,0,0,1,2.949-2.949,7.4,7.4,0,0,1,2.448-.469c1.075-.049,1.419-.061,4.157-.061s3.082.012,4.157.061a7.4,7.4,0,0,1,2.448.469,5.157,5.157,0,0,1,2.949,2.949,7.4,7.4,0,0,1,.469,2.448c.049,1.075.061,1.419.061,4.157S1293.457,294.542,1293.408,295.618Z" transform="translate(-1267.371 -275.446)" fill="#fff"/>
</svg>
