<svg id="그룹_21" data-name="그룹 21" xmlns="http://www.w3.org/2000/svg" width="32.029" height="32.029" viewBox="0 0 32.029 32.029">
  <path id="패스_29" data-name="패스 29" d="M1317.76,576.818q-.642-.008-1.283,0c-.1,0-.129-.024-.129-.128,0-1.218,0-2.435,0-3.653a.912.912,0,0,0-.02-.243.672.672,0,0,0-.714-.493.658.658,0,0,0-.6.657c0,.739,0,1.478,0,2.217s0,1.486,0,2.229a.6.6,0,0,0,.572.606q1.109.013,2.217,0a.6.6,0,0,0,.573-.628A.609.609,0,0,0,1317.76,576.818Z" transform="translate(-1298.531 -559.762)" fill="#fff" fill-rule="evenodd"/>
  <path id="패스_30" data-name="패스 30" d="M1296.342,574.875c-.244-.642-.485-1.285-.733-1.926a.931.931,0,0,0-1.012-.613.963.963,0,0,0-.736.647q-.669,1.757-1.334,3.515a5.685,5.685,0,0,0-.294.846c-.1.471.061.7.521.773a.587.587,0,0,0,.711-.409c.082-.214.167-.427.244-.642a.11.11,0,0,1,.126-.086c.3,0,.607,0,.91,0s.6,0,.9,0a.122.122,0,0,1,.139.1c.078.219.176.432.245.654a.537.537,0,0,0,.544.39,1.007,1.007,0,0,0,.411-.069.418.418,0,0,0,.288-.386,1.4,1.4,0,0,0-.1-.627Q1296.755,575.957,1296.342,574.875Zm-1.772.943c-.128,0-.257,0-.385,0-.083,0-.1-.017-.068-.1.17-.471.335-.944.5-1.415l.124-.352.655,1.862Z" transform="translate(-1281.134 -559.781)" fill="#fff" fill-rule="evenodd"/>
  <path id="패스_31" data-name="패스 31" d="M1261.561,519.461a16.015,16.015,0,1,0,16.015,16.015A16.015,16.015,0,0,0,1261.561,519.461Zm10.216,19.174a9.626,9.626,0,0,1-3.49,3.284,12.83,12.83,0,0,1-4.357,1.539,14.089,14.089,0,0,1-2.218.193,13.52,13.52,0,0,1-2.025-.122.347.347,0,0,0-.269.066c-1.333.935-2.665,1.873-4.041,2.744-.167.106-.342.2-.514.3a.544.544,0,0,1-.2.067c-.219.03-.349-.1-.3-.318.082-.384.2-.759.3-1.136q.407-1.428.817-2.855c.024-.084.016-.123-.071-.167a10.48,10.48,0,0,1-3.377-2.637,7.712,7.712,0,0,1-1.769-3.8,7.188,7.188,0,0,1,.826-4.642,9.422,9.422,0,0,1,3.239-3.4,12.633,12.633,0,0,1,4.7-1.822,14.075,14.075,0,0,1,3.789-.166,12.707,12.707,0,0,1,6.537,2.386,8.713,8.713,0,0,1,2.959,3.611A7.161,7.161,0,0,1,1271.776,538.635Z" transform="translate(-1245.546 -519.461)" fill="#fff" fill-rule="evenodd"/>
  <path id="패스_32" data-name="패스 32" d="M1280.9,573.559a.643.643,0,0,0-.18-1.266q-1.663,0-3.326,0a.642.642,0,1,0,.006,1.284c.292,0,.584.006.875,0,.108,0,.126.033.125.131,0,.622,0,1.245,0,1.867s0,1.253,0,1.879a.652.652,0,0,0,.864.625.641.641,0,0,0,.451-.66q0-1.861,0-3.722c0-.089.019-.121.114-.118.292.007.583,0,.875,0A.734.734,0,0,0,1280.9,573.559Z" transform="translate(-1269.331 -559.757)" fill="#fff" fill-rule="evenodd"/>
  <path id="패스_33" data-name="패스 33" d="M1332.85,574.988c-.052-.068-.055-.1.009-.168.463-.456.921-.917,1.38-1.377a.589.589,0,0,0,.164-.251.638.638,0,0,0-.3-.709.553.553,0,0,0-.722.091q-.842.841-1.683,1.685a.774.774,0,0,0-.075.1l-.039-.027v-.09c0-.428,0-.856,0-1.284a.655.655,0,1,0-1.31.005q0,2.236,0,4.471a.674.674,0,0,0,.06.283.654.654,0,0,0,.708.375.643.643,0,0,0,.542-.625c.006-.452,0-.9,0-1.354,0-.076.15-.309.214-.305.083.005.1.106.151.158a.391.391,0,0,1,.035.047c.455.6.907,1.205,1.365,1.805a.656.656,0,1,0,1.035-.8Q1333.619,576,1332.85,574.988Z" transform="translate(-1310.169 -559.764)" fill="#fff" fill-rule="evenodd"/>
</svg>
