<svg xmlns="http://www.w3.org/2000/svg" width="32.029" height="32.029" viewBox="0 0 32.029 32.029">
  <path id="패스_28" data-name="패스 28" d="M1500.07,342.946a16.015,16.015,0,1,0,16.015,16.015A16.015,16.015,0,0,0,1500.07,342.946Zm8.8,14.181a7.834,7.834,0,0,1-1.766-.213,8.459,8.459,0,0,1-2.775-1.2c-.045-.029-.092-.092-.139-.07s-.029.105-.029.16c0,2.3.009,4.594,0,6.891a6.571,6.571,0,0,1-5.81,6.529,6.506,6.506,0,0,1-3.74-.661,3.42,3.42,0,0,1-.545-.333l-.162-.143h0a1.549,1.549,0,0,1-.339-.233,6.521,6.521,0,0,1-2.5-5.564,6.521,6.521,0,0,1,4.295-5.7,6.5,6.5,0,0,1,1.735-.368,6.732,6.732,0,0,1,1.29.029c.058.007.092.019.091.087,0,.238,0,.477-.006.715,0,0,.035,1.813.035,2.641,0,.029,0,.058,0,.088,0,.083-.046.111-.125.089a3.137,3.137,0,0,0-.693-.107,2.643,2.643,0,0,0-1.06.158,2.943,2.943,0,0,0-.664,5.248c.083.057.167.11.244.175l.056.051a4.035,4.035,0,0,0,.7.231,2.994,2.994,0,0,0,3.562-2.447,2.85,2.85,0,0,0,.035-.512q0-6.919,0-13.837c0-.215-.03-.188.184-.188h3.266c.109,0,.111,0,.11.112a7.04,7.04,0,0,0,.111.871c.46,2.332,3.177,3.758,4.016,3.884a4.4,4.4,0,0,0,.7.06c.1,0,.1,0,.1.1,0,.217.043,2.447.042,3.262C1509.085,357.117,1509.06,357.127,1508.871,357.127Z" transform="translate(-1484.055 -342.946)" fill="#fff"/>
</svg>
