<svg xmlns="http://www.w3.org/2000/svg" width="22.924" height="15.065" viewBox="0 0 22.924 15.065">
  <g id="그룹_85" data-name="그룹 85" transform="translate(-545.108 -225.474)">
    <path id="패스_264" data-name="패스 264" d="M579.342,232.8a3,3,0,0,0-1.318-2.518h.024c-.508-1.286-1.016-2.585-1.511-3.885a1.692,1.692,0,0,0-1.5-.92h-12.38a1.674,1.674,0,0,0-1.487.92c-.508,1.3-1.016,2.6-1.523,3.885h.036a2.986,2.986,0,0,0-1.33,2.518v5.468h20.989Zm-18-2.721c.133-.636.266-1.245.4-1.841.121-.568.23-1.123.351-1.651a.387.387,0,0,1,.351-.3h12.816a.387.387,0,0,1,.351.3c.121.541.23,1.083.351,1.651.133.6.266,1.2.4,1.841.036.2-.073.366-.254.366H561.593C561.412,230.442,561.3,230.279,561.339,230.076Zm2.309,4.088a.36.36,0,0,1-.363.365h-3.071c-1.644,0-1.064-3.221,0-2.666l2.962,1.57c.23.122.471.217.471.487Zm8.971,2.694a.471.471,0,0,1-.447.487h-6.65a.471.471,0,0,1-.447-.487v-.514a.484.484,0,0,1,.447-.5h6.65a.484.484,0,0,1,.447.5Zm3.942-2.328H573.49a.36.36,0,0,1-.363-.365v-.244c0-.271.242-.365.471-.487l2.962-1.57C577.625,231.308,578.206,234.529,576.561,234.529Z" transform="translate(-12.278 0)" fill="#354593"/>
    <path id="패스_265" data-name="패스 265" d="M807.083,408.046h2.055a.429.429,0,0,0,.4-.447v-1.421h-2.854V407.6A.429.429,0,0,0,807.083,408.046Z" transform="translate(-242.473 -167.507)" fill="#354593"/>
    <path id="패스_266" data-name="패스 266" d="M829.381,271.5v-.771a.389.389,0,0,0-.375-.406h-1.294a.836.836,0,0,0-.665.325l.375.974a3.94,3.94,0,0,1,.326.284h1.257A.4.4,0,0,0,829.381,271.5Z" transform="translate(-261.349 -41.576)" fill="#354593"/>
    <path id="패스_267" data-name="패스 267" d="M547.067,271.625l.375-.974a.831.831,0,0,0-.653-.325h-1.306a.389.389,0,0,0-.375.406v.771a.4.4,0,0,0,.375.406h1.257A3.952,3.952,0,0,1,547.067,271.625Z" transform="translate(0 -41.576)" fill="#354593"/>
    <path id="패스_268" data-name="패스 268" d="M558.752,408.046h2.055a.429.429,0,0,0,.4-.447v-1.421h-2.853V407.6A.429.429,0,0,0,558.752,408.046Z" transform="translate(-12.278 -167.507)" fill="#354593"/>
  </g>
</svg>
