<svg xmlns="http://www.w3.org/2000/svg" width="132.427" height="25.705" viewBox="0 0 132.427 25.705">
  <g id="그룹_366" data-name="그룹 366" transform="translate(-1378.001 -1170.032)">
    <g id="그룹_95" data-name="그룹 95" transform="translate(749.271 135.703)">
      <path id="패스_261" data-name="패스 261" d="M629.991,1048.593a1.287,1.287,0,0,1-.777-.259,1.19,1.19,0,0,1-.215-1.71,16,16,0,0,1,3.384-2.765,16.758,16.758,0,0,1,7.793-2.648c4.509-.294,8.85,1.485,12.9,5.29a1.187,1.187,0,0,1,.024,1.722,1.294,1.294,0,0,1-1.784.024c-3.491-3.277-7.154-4.828-10.889-4.611a15.29,15.29,0,0,0-9.446,4.491A1.274,1.274,0,0,1,629.991,1048.593Zm3.873,2.631a10.5,10.5,0,0,1,6.754-3.311c2.6-.115,5.219,1.026,7.789,3.392a1.294,1.294,0,0,0,1.784-.04,1.187,1.187,0,0,0-.042-1.721c-3.088-2.843-6.334-4.21-9.647-4.063a12.958,12.958,0,0,0-8.541,4.144,1.188,1.188,0,0,0,.123,1.718,1.294,1.294,0,0,0,1.78-.118Zm3,3.109a5.751,5.751,0,0,1,3.682-2.051c1.662-.172,3.326.588,4.945,2.258a1.3,1.3,0,0,0,1.783.057,1.188,1.188,0,0,0,.06-1.721c-2.728-2.814-5.344-3.193-7.058-3.016a8.159,8.159,0,0,0-5.579,3.224,1.194,1.194,0,0,0,.437,1.669,1.291,1.291,0,0,0,.645.172A1.271,1.271,0,0,0,636.862,1054.332Zm4.266.323a2.339,2.339,0,1,0,2.422,2.338A2.381,2.381,0,0,0,641.129,1054.655Z" fill="#354593"/>
    </g>
    <g id="그룹_96" data-name="그룹 96" transform="translate(-1882.137 640.665)">
      <rect id="사각형_307" data-name="사각형 307" width="1.796" height="6.105" transform="translate(3312.849 548.967)" fill="#354593"/>
      <rect id="사각형_308" data-name="사각형 308" width="1.796" height="6.105" transform="translate(3315.637 548.967)" fill="#354593"/>
      <path id="패스_262" data-name="패스 262" d="M3537.229,557.206a5.548,5.548,0,0,0-2.4-1.88,7.474,7.474,0,0,0-2.218-.517,5.353,5.353,0,0,0,0-3.262,4.2,4.2,0,0,0-1.4-1.923,6.591,6.591,0,0,0-2.4-1.124v2.315a2.939,2.939,0,0,1,1.961,1.558,4,4,0,0,1-.521,2.9,1.235,1.235,0,0,0-.054,1.181.971.971,0,0,0,.92.573c2.175-.128,3.717.407,4.583,1.592,1.107,1.514.916,3.783.792,4.648h2A8.937,8.937,0,0,0,3537.229,557.206Z" transform="translate(-220.924 -15.166)" fill="#354593"/>
      <path id="패스_263" data-name="패스 263" d="M3433.208,544.263a4.4,4.4,0,0,0-1.8-.682c-.766-.124-1.492-.178-2.132-.225-1.055-.078-2.146-.159-2.4-.558-.092-.142-.272-.639.058-2.17a1.222,1.222,0,0,0-.023-.628,1.01,1.01,0,0,0-.921-.75c-.073,0-2.573-.1-2.679-1.858a3.091,3.091,0,0,1,.7-2.36,2.132,2.132,0,0,1,.277-.256v-2.44a3.766,3.766,0,0,0-1.657,1.092,5.543,5.543,0,0,0-1.293,4.117,3.9,3.9,0,0,0,2.534,3.489,5.953,5.953,0,0,0,.937.3,6.79,6.79,0,0,0-.038,1.012,3.511,3.511,0,0,0,.511,1.78,2.869,2.869,0,0,0,1.8,1.2,12.318,12.318,0,0,0,2.071.265c.634.047,1.29.1,1.981.207a1.98,1.98,0,0,1,1.523.892,2.658,2.658,0,0,1,.242,1.413h1.982a4.953,4.953,0,0,0-.538-2.586A3.6,3.6,0,0,0,3433.208,544.263Z" transform="translate(-120.093)" fill="#354593"/>
      <rect id="사각형_309" data-name="사각형 309" width="18.548" height="6.105" transform="translate(3293.308 548.967)" fill="#354593"/>
    </g>
    <g id="그룹_97" data-name="그룹 97" transform="translate(903.892 954.494)">
      <path id="패스_264" data-name="패스 264" d="M579.342,232.8a3,3,0,0,0-1.318-2.518h.024c-.508-1.286-1.016-2.585-1.511-3.885a1.692,1.692,0,0,0-1.5-.92h-12.38a1.674,1.674,0,0,0-1.487.92c-.508,1.3-1.016,2.6-1.523,3.885h.036a2.986,2.986,0,0,0-1.33,2.518v5.468h20.989Zm-18-2.721c.133-.636.266-1.245.4-1.841.121-.568.23-1.123.351-1.651a.387.387,0,0,1,.351-.3h12.816a.387.387,0,0,1,.351.3c.121.541.23,1.083.351,1.651.133.6.266,1.2.4,1.841.036.2-.073.366-.254.366H561.593C561.412,230.442,561.3,230.279,561.339,230.076Zm2.309,4.088a.36.36,0,0,1-.363.365h-3.071c-1.644,0-1.064-3.221,0-2.666l2.962,1.57c.23.122.471.217.471.487Zm8.971,2.694a.471.471,0,0,1-.447.487h-6.65a.471.471,0,0,1-.447-.487v-.514a.484.484,0,0,1,.447-.5h6.65a.484.484,0,0,1,.447.5Zm3.942-2.328H573.49a.36.36,0,0,1-.363-.365v-.244c0-.271.242-.365.471-.487l2.962-1.57C577.625,231.308,578.206,234.529,576.561,234.529Z" transform="translate(-12.278 0)" fill="#354593"/>
      <path id="패스_265" data-name="패스 265" d="M807.083,408.046h2.055a.429.429,0,0,0,.4-.447v-1.421h-2.854V407.6A.429.429,0,0,0,807.083,408.046Z" transform="translate(-242.473 -167.507)" fill="#354593"/>
      <path id="패스_266" data-name="패스 266" d="M829.381,271.5v-.771a.389.389,0,0,0-.375-.406h-1.294a.836.836,0,0,0-.665.325l.375.974a3.94,3.94,0,0,1,.326.284h1.257A.4.4,0,0,0,829.381,271.5Z" transform="translate(-261.349 -41.576)" fill="#354593"/>
      <path id="패스_267" data-name="패스 267" d="M547.067,271.625l.375-.974a.831.831,0,0,0-.653-.325h-1.306a.389.389,0,0,0-.375.406v.771a.4.4,0,0,0,.375.406h1.257A3.952,3.952,0,0,1,547.067,271.625Z" transform="translate(0 -41.576)" fill="#354593"/>
      <path id="패스_268" data-name="패스 268" d="M558.752,408.046h2.055a.429.429,0,0,0,.4-.447v-1.421h-2.853V407.6A.429.429,0,0,0,558.752,408.046Z" transform="translate(-12.278 -167.507)" fill="#354593"/>
    </g>
    <g id="그룹_98" data-name="그룹 98" transform="translate(-1048.994 2311.169)">
      <g id="그룹_88" data-name="그룹 88" transform="translate(2534.417 -1141.137)">
        <g id="그룹_86" data-name="그룹 86" transform="translate(0 5.319)">
          <path id="패스_269" data-name="패스 269" d="M2541.826-1034.907a3.842,3.842,0,0,0-1.6.151h0a2.911,2.911,0,0,1-2.267,0,3.885,3.885,0,0,0-1.608-.151,1.928,1.928,0,0,0-1.927,1.929v7.247a.765.765,0,0,0,.765.765h0a.765.765,0,0,0,.765-.765v-5.735c0-.095.152-.172.247-.172s.266.078.266.172v15a1.228,1.228,0,0,0,1.228,1.228h.025a1.148,1.148,0,0,0,1.118-1.151v-6.957a.256.256,0,0,1,.256-.256h0a.256.256,0,0,1,.256.256v6.957a1.148,1.148,0,0,0,1.117,1.152h.026a1.228,1.228,0,0,0,1.228-1.228v-15c0-.095.161-.172.256-.172s.257.078.257.172v5.735a.765.765,0,0,0,.765.765h0a.765.765,0,0,0,.765-.765v-7.248A1.929,1.929,0,0,0,2541.826-1034.907Z" transform="translate(-2534.417 1034.918)" fill="#354593"/>
        </g>
        <g id="그룹_87" data-name="그룹 87" transform="translate(1.636 0)">
          <ellipse id="타원_23" data-name="타원 23" cx="2.145" cy="2.145" rx="2.145" ry="2.145" transform="matrix(0.705, -0.71, 0.71, 0.705, 0, 3.044)" fill="#354593"/>
        </g>
      </g>
      <g id="그룹_91" data-name="그룹 91" transform="translate(2548.499 -1140.536)">
        <g id="그룹_89" data-name="그룹 89" transform="translate(3.029 0)">
          <circle id="타원_24" data-name="타원 24" cx="2.145" cy="2.145" r="2.145" transform="translate(0 0.62) rotate(-8.317)" fill="#354593"/>
        </g>
        <g id="그룹_90" data-name="그룹 90" transform="translate(0 4.79)">
          <path id="패스_270" data-name="패스 270" d="M2826.534-1024.918s-1.9-7.095-1.943-7.211a2.3,2.3,0,0,0-1.405-1.3,1.633,1.633,0,0,0-.959.037,2.915,2.915,0,0,1-2.263,0,1.633,1.633,0,0,0-.959-.037,2.3,2.3,0,0,0-1.4,1.3c-.048.116-1.943,7.21-1.943,7.211a.68.68,0,0,0,.481.833.68.68,0,0,0,.833-.481s1.365-5.076,1.585-5.9a.318.318,0,0,1,.238-.233.255.255,0,0,1,.265.334c-.089.341-.461,1.723-2.108,7.925a.159.159,0,0,0,.149.214h1.85v7.4a.945.945,0,0,0,.979.944.959.959,0,0,0,.91-.966v-7.123a.256.256,0,0,1,.256-.256.256.256,0,0,1,.256.256v7.123a.959.959,0,0,0,.91.966.944.944,0,0,0,.979-.944v-7.4h1.85a.159.159,0,0,0,.15-.214c-1.646-6.2-2.019-7.584-2.108-7.925a.255.255,0,0,1,.265-.334.318.318,0,0,1,.238.233c.22.82,1.584,5.894,1.585,5.9a.681.681,0,0,0,.833.481A.68.68,0,0,0,2826.534-1024.918Z" transform="translate(-2815.634 1033.486)" fill="#354593"/>
        </g>
      </g>
      <g id="그룹_93" data-name="그룹 93" transform="translate(2545.887 -1140.248)">
        <g id="그룹_92" data-name="그룹 92" transform="translate(0 0)">
          <path id="패스_271" data-name="패스 271" d="M2764.11-1099.283a.637.637,0,0,1-.637-.637v-22.839a.637.637,0,0,1,.637-.636.636.636,0,0,1,.636.636v22.839A.637.637,0,0,1,2764.11-1099.283Z" transform="translate(-2763.473 1123.395)" fill="#354593"/>
        </g>
      </g>
    </g>
  </g>
</svg>
