<svg xmlns="http://www.w3.org/2000/svg" width="24.329" height="22.737" viewBox="0 0 24.329 22.737">
  <g id="그룹_81" data-name="그룹 81" transform="translate(-3293.308 -532.335)">
    <rect id="사각형_307" data-name="사각형 307" width="1.796" height="6.105" transform="translate(3312.849 548.967)" fill="#354593"/>
    <rect id="사각형_308" data-name="사각형 308" width="1.796" height="6.105" transform="translate(3315.637 548.967)" fill="#354593"/>
    <path id="패스_262" data-name="패스 262" d="M3537.229,557.206a5.548,5.548,0,0,0-2.4-1.88,7.474,7.474,0,0,0-2.218-.517,5.353,5.353,0,0,0,0-3.262,4.2,4.2,0,0,0-1.4-1.923,6.591,6.591,0,0,0-2.4-1.124v2.315a2.939,2.939,0,0,1,1.961,1.558,4,4,0,0,1-.521,2.9,1.235,1.235,0,0,0-.054,1.181.971.971,0,0,0,.92.573c2.175-.128,3.717.407,4.583,1.592,1.107,1.514.916,3.783.792,4.648h2A8.937,8.937,0,0,0,3537.229,557.206Z" transform="translate(-220.924 -15.166)" fill="#354593"/>
    <path id="패스_263" data-name="패스 263" d="M3433.208,544.263a4.4,4.4,0,0,0-1.8-.682c-.766-.124-1.492-.178-2.132-.225-1.055-.078-2.146-.159-2.4-.558-.092-.142-.272-.639.058-2.17a1.222,1.222,0,0,0-.023-.628,1.01,1.01,0,0,0-.921-.75c-.073,0-2.573-.1-2.679-1.858a3.091,3.091,0,0,1,.7-2.36,2.132,2.132,0,0,1,.277-.256v-2.44a3.766,3.766,0,0,0-1.657,1.092,5.543,5.543,0,0,0-1.293,4.117,3.9,3.9,0,0,0,2.534,3.489,5.953,5.953,0,0,0,.937.3,6.79,6.79,0,0,0-.038,1.012,3.511,3.511,0,0,0,.511,1.78,2.869,2.869,0,0,0,1.8,1.2,12.318,12.318,0,0,0,2.071.265c.634.047,1.29.1,1.981.207a1.98,1.98,0,0,1,1.523.892,2.658,2.658,0,0,1,.242,1.413h1.982a4.953,4.953,0,0,0-.538-2.586A3.6,3.6,0,0,0,3433.208,544.263Z" transform="translate(-120.093)" fill="#354593"/>
    <rect id="사각형_309" data-name="사각형 309" width="18.548" height="6.105" transform="translate(3293.308 548.967)" fill="#354593"/>
  </g>
</svg>
