<svg xmlns="http://www.w3.org/2000/svg" width="25.006" height="25" viewBox="0 0 25.006 25">
  <g id="그룹_94" data-name="그룹 94" transform="translate(-2534.417 1141.137)">
    <g id="그룹_88" data-name="그룹 88" transform="translate(2534.417 -1141.137)">
      <g id="그룹_86" data-name="그룹 86" transform="translate(0 5.319)">
        <path id="패스_269" data-name="패스 269" d="M2541.826-1034.907a3.842,3.842,0,0,0-1.6.151h0a2.911,2.911,0,0,1-2.267,0,3.885,3.885,0,0,0-1.608-.151,1.928,1.928,0,0,0-1.927,1.929v7.247a.765.765,0,0,0,.765.765h0a.765.765,0,0,0,.765-.765v-5.735c0-.095.152-.172.247-.172s.266.078.266.172v15a1.228,1.228,0,0,0,1.228,1.228h.025a1.148,1.148,0,0,0,1.118-1.151v-6.957a.256.256,0,0,1,.256-.256h0a.256.256,0,0,1,.256.256v6.957a1.148,1.148,0,0,0,1.117,1.152h.026a1.228,1.228,0,0,0,1.228-1.228v-15c0-.095.161-.172.256-.172s.257.078.257.172v5.735a.765.765,0,0,0,.765.765h0a.765.765,0,0,0,.765-.765v-7.248A1.929,1.929,0,0,0,2541.826-1034.907Z" transform="translate(-2534.417 1034.918)" fill="#354593"/>
      </g>
      <g id="그룹_87" data-name="그룹 87" transform="translate(1.636 0)">
        <ellipse id="타원_23" data-name="타원 23" cx="2.145" cy="2.145" rx="2.145" ry="2.145" transform="matrix(0.705, -0.71, 0.71, 0.705, 0, 3.044)" fill="#354593"/>
      </g>
    </g>
    <g id="그룹_91" data-name="그룹 91" transform="translate(2548.499 -1140.536)">
      <g id="그룹_89" data-name="그룹 89" transform="translate(3.029 0)">
        <circle id="타원_24" data-name="타원 24" cx="2.145" cy="2.145" r="2.145" transform="translate(0 0.62) rotate(-8.317)" fill="#354593"/>
      </g>
      <g id="그룹_90" data-name="그룹 90" transform="translate(0 4.79)">
        <path id="패스_270" data-name="패스 270" d="M2826.534-1024.918s-1.9-7.095-1.943-7.211a2.3,2.3,0,0,0-1.405-1.3,1.633,1.633,0,0,0-.959.037,2.915,2.915,0,0,1-2.263,0,1.633,1.633,0,0,0-.959-.037,2.3,2.3,0,0,0-1.4,1.3c-.048.116-1.943,7.21-1.943,7.211a.68.68,0,0,0,.481.833.68.68,0,0,0,.833-.481s1.365-5.076,1.585-5.9a.318.318,0,0,1,.238-.233.255.255,0,0,1,.265.334c-.089.341-.461,1.723-2.108,7.925a.159.159,0,0,0,.149.214h1.85v7.4a.945.945,0,0,0,.979.944.959.959,0,0,0,.91-.966v-7.123a.256.256,0,0,1,.256-.256.256.256,0,0,1,.256.256v7.123a.959.959,0,0,0,.91.966.944.944,0,0,0,.979-.944v-7.4h1.85a.159.159,0,0,0,.15-.214c-1.646-6.2-2.019-7.584-2.108-7.925a.255.255,0,0,1,.265-.334.318.318,0,0,1,.238.233c.22.82,1.584,5.894,1.585,5.9a.681.681,0,0,0,.833.481A.68.68,0,0,0,2826.534-1024.918Z" transform="translate(-2815.634 1033.486)" fill="#354593"/>
      </g>
    </g>
    <g id="그룹_93" data-name="그룹 93" transform="translate(2545.887 -1140.248)">
      <g id="그룹_92" data-name="그룹 92" transform="translate(0 0)">
        <path id="패스_271" data-name="패스 271" d="M2764.11-1099.283a.637.637,0,0,1-.637-.637v-22.839a.637.637,0,0,1,.637-.636.636.636,0,0,1,.636.636v22.839A.637.637,0,0,1,2764.11-1099.283Z" transform="translate(-2763.473 1123.395)" fill="#354593"/>
      </g>
    </g>
  </g>
</svg>
