<svg xmlns="http://www.w3.org/2000/svg" width="24.73" height="18.15" viewBox="0 0 24.73 18.15">
  <g id="그룹_80" data-name="그룹 80" transform="translate(-628.73 -1041.18)">
    <path id="패스_261" data-name="패스 261" d="M629.991,1048.593a1.287,1.287,0,0,1-.777-.259,1.19,1.19,0,0,1-.215-1.71,16,16,0,0,1,3.384-2.765,16.758,16.758,0,0,1,7.793-2.648c4.509-.294,8.85,1.485,12.9,5.29a1.187,1.187,0,0,1,.024,1.722,1.294,1.294,0,0,1-1.784.024c-3.491-3.277-7.154-4.828-10.889-4.611a15.29,15.29,0,0,0-9.446,4.491A1.274,1.274,0,0,1,629.991,1048.593Zm3.873,2.631a10.5,10.5,0,0,1,6.754-3.311c2.6-.115,5.219,1.026,7.789,3.392a1.294,1.294,0,0,0,1.784-.04,1.187,1.187,0,0,0-.042-1.721c-3.088-2.843-6.334-4.21-9.647-4.063a12.958,12.958,0,0,0-8.541,4.144,1.188,1.188,0,0,0,.123,1.718,1.294,1.294,0,0,0,1.78-.118Zm3,3.109a5.751,5.751,0,0,1,3.682-2.051c1.662-.172,3.326.588,4.945,2.258a1.3,1.3,0,0,0,1.783.057,1.188,1.188,0,0,0,.06-1.721c-2.728-2.814-5.344-3.193-7.058-3.016a8.159,8.159,0,0,0-5.579,3.224,1.194,1.194,0,0,0,.437,1.669,1.291,1.291,0,0,0,.645.172A1.271,1.271,0,0,0,636.862,1054.332Zm4.266.323a2.339,2.339,0,1,0,2.422,2.338A2.381,2.381,0,0,0,641.129,1054.655Z" fill="#354593"/>
  </g>
</svg>
