<svg xmlns="http://www.w3.org/2000/svg" width="317.763" height="318" viewBox="0 0 317.763 318">
  <g id="그룹_52" data-name="그룹 52" transform="translate(-930.866 1400.196)">
    <g id="그룹_25" data-name="그룹 25" transform="translate(930.866 -1400.196)">
      <path id="패스_65" data-name="패스 65" d="M961.229-1302.974l2.633-4.032c1.638-2.509,3.9-3.994,6.734-2.144,2.725,1.779,2.558,4.655.97,7.087l-.875,1.339,3.8,2.483-1.8,2.755Zm8.076-.368c.875-1.339.665-2.4-.458-3.131-1.154-.754-2.036-.276-2.9,1.047l-.734,1.123,3.309,2.16Z" transform="translate(-937.977 1379.067)" fill="#354593"/>
      <path id="패스_66" data-name="패스 66" d="M971.582-1316.836l1.985-2.624,10.916,8.262-1.985,2.623Z" transform="translate(-940.402 1381.287)" fill="#354593"/>
      <path id="패스_67" data-name="패스 67" d="M983.317-1321.2c-3.439-2.99-3.407-7.006-1.128-9.627a5.825,5.825,0,0,1,4.071-1.965l.459,2.665a3.47,3.47,0,0,0-2.372,1.1c-1.158,1.332-.917,3.465,1.094,5.213,2.053,1.785,4.065,1.879,5.332.423a3.526,3.526,0,0,0,.77-2.79l2.686.047a5.69,5.69,0,0,1-1.4,4.7C990.545-1318.814,986.813-1318.163,983.317-1321.2Z" transform="translate(-942.511 1384.41)" fill="#354593"/>
      <path id="패스_68" data-name="패스 68" d="M989.957-1339.558l6.227-6.044,1.908,1.966-3.866,3.752,1.768,1.82,3.285-3.189,1.921,1.979-3.285,3.189,2.023,2.084,4.011-3.893,1.921,1.979-6.372,6.185Z" transform="translate(-944.705 1387.41)" fill="#354593"/>
      <path id="패스_69" data-name="패스 69" d="M1011.981-1349.79c-2.7-3.584-2.2-7.136.786-9.38s6.545-1.728,9.231,1.841c2.7,3.585,2.284,7.254-.7,9.5S1014.678-1346.206,1011.981-1349.79Zm7.343-5.527c-1.592-2.115-3.427-2.689-4.867-1.606s-1.381,2.995.211,5.11,3.49,2.8,4.929,1.72S1020.917-1353.2,1019.325-1355.317Z" transform="translate(-949.45 1390.904)" fill="#354593"/>
      <path id="패스_70" data-name="패스 70" d="M1024.9-1367.833l7.421-4.6,1.442,2.328-4.625,2.864,1.577,2.546,3.968-2.458,1.442,2.328-3.968,2.457,2.748,4.437-2.8,1.731Z" transform="translate(-952.89 1393.693)" fill="#354593"/>
      <path id="패스_71" data-name="패스 71" d="M1045.29-1379l3.569-1.652c3.785-1.753,7.136-1.078,9.137,3.241s.4,7.428-3.216,9.1l-3.735,1.73Zm8.028,8.454c2-.927,2.993-2.5,1.626-5.452s-3.163-3.112-5.165-2.185l-.4.185,3.537,7.637Z" transform="translate(-957.665 1395.83)" fill="#354593"/>
      <path id="패스_72" data-name="패스 72" d="M1063.307-1387.086l8.168-2.923.923,2.578-5.07,1.814.854,2.388,4.309-1.542.93,2.6-4.309,1.542.978,2.735,5.261-1.882.929,2.6-8.359,2.991Z" transform="translate(-961.884 1397.81)" fill="#354593"/>
      <path id="패스_73" data-name="패스 73" d="M1082.035-1380.449l1.232-2.665a5.435,5.435,0,0,0,3.555.5c1.172-.311,1.6-.9,1.417-1.611-.2-.763-1-.819-2.261-1l-1.875-.263a4,4,0,0,1-3.643-2.912c-.588-2.22.93-4.524,3.736-5.268a6.364,6.364,0,0,1,4.76.6l-1.053,2.408a4.446,4.446,0,0,0-2.987-.292c-.976.259-1.459.8-1.276,1.5.2.746,1.09.813,2.385.964l1.826.22a3.78,3.78,0,0,1,3.572,2.931c.584,2.2-.75,4.628-3.948,5.476A7.648,7.648,0,0,1,1082.035-1380.449Z" transform="translate(-965.872 1398.716)" fill="#354593"/>
      <path id="패스_74" data-name="패스 74" d="M1097.366-1384.268l1.446-2.556a5.441,5.441,0,0,0,3.5.79c1.194-.215,1.674-.767,1.544-1.491-.14-.778-.927-.9-2.173-1.179l-1.848-.415a4,4,0,0,1-3.395-3.2c-.406-2.261,1.295-4.434,4.154-4.947a6.365,6.365,0,0,1,4.7.986l-1.246,2.316a4.447,4.447,0,0,0-2.954-.535c-.995.178-1.52.684-1.393,1.389.136.76,1.02.9,2.3,1.156l1.8.368a3.777,3.777,0,0,1,3.321,3.212c.4,2.243-1.123,4.553-4.38,5.137A7.653,7.653,0,0,1,1097.366-1384.268Z" transform="translate(-969.631 1399.533)" fill="#354593"/>
      <path id="패스_75" data-name="패스 75" d="M1112.94-1386.822l1.65-2.431a5.436,5.436,0,0,0,3.428,1.074c1.208-.116,1.731-.629,1.66-1.361-.075-.786-.85-.971-2.069-1.352l-1.809-.564a4.005,4.005,0,0,1-3.123-3.467c-.22-2.287,1.652-4.314,4.543-4.593a6.363,6.363,0,0,1,4.6,1.366l-1.431,2.206a4.448,4.448,0,0,0-2.9-.773c-1.007.1-1.572.557-1.5,1.271.074.768.944.98,2.2,1.339l1.767.513a3.781,3.781,0,0,1,3.049,3.474c.219,2.269-1.492,4.447-4.786,4.765A7.657,7.657,0,0,1,1112.94-1386.822Z" transform="translate(-973.443 1400.044)" fill="#354593"/>
      <path id="패스_76" data-name="패스 76" d="M1130.009-1400.059l8.676-.137.044,2.739-5.387.086.041,2.536,4.577-.073.044,2.757-4.576.073.046,2.9,5.587-.089.044,2.757-8.878.141Z" transform="translate(-977.506 1400.196)" fill="#354593"/>
      <path id="패스_77" data-name="패스 77" d="M1147-1400.036l5.005.367c2.915.214,5.261,1.4,5.02,4.7a4.049,4.049,0,0,1-2.637,3.769l2.647,5.632-3.667-.269-2.159-4.988-1.578-.116-.351,4.8-3.282-.24Zm4.288,6.618c1.559.114,2.452-.5,2.546-1.786s-.719-1.767-2.277-1.881l-1.467-.108-.269,3.667Z" transform="translate(-981.251 1400.159)" fill="#354593"/>
      <path id="패스_78" data-name="패스 78" d="M1167.551-1395.327l-3.648-.583.433-2.7,10.561,1.686-.432,2.7-3.666-.586-1.727,10.816-3.249-.519Z" transform="translate(-985.444 1399.825)" fill="#354593"/>
      <path id="패스_79" data-name="패스 79" d="M1188.651-1393.794l4.629,1.329c2.879.826,4.965,2.553,4.032,5.8-.9,3.128-3.7,3.816-6.487,3.014l-1.537-.441-1.253,4.364-3.163-.908Zm2.73,7.61c1.537.441,2.487-.071,2.857-1.36.38-1.325-.336-2.028-1.855-2.464l-1.29-.37-1.09,3.8Z" transform="translate(-990.356 1398.697)" fill="#354593"/>
      <path id="패스_80" data-name="패스 80" d="M1205.957-1388.379l3.091,1.126-4.683,12.866-3.092-1.125Z" transform="translate(-994.197 1397.428)" fill="#354593"/>
      <path id="패스_81" data-name="패스 81" d="M1212.389-1378.212c1.849-4.167,5.7-5.316,8.873-3.907a5.823,5.823,0,0,1,3.075,3.315l-2.413,1.221a3.472,3.472,0,0,0-1.752-1.944c-1.613-.715-3.582.141-4.663,2.578-1.1,2.487-.6,4.439,1.163,5.221a3.524,3.524,0,0,0,2.892-.083l.745,2.582a5.694,5.694,0,0,1-4.9.037C1212.229-1370.6,1210.51-1373.978,1212.389-1378.212Z" transform="translate(-996.617 1396.097)" fill="#354593"/>
      <path id="패스_82" data-name="패스 82" d="M1231.483-1377.163l7.6,4.187-1.322,2.4-4.718-2.6-1.224,2.222,4.01,2.209-1.331,2.415-4.01-2.209-1.4,2.544,4.9,2.7-1.331,2.415-7.777-4.284Z" transform="translate(-999.724 1394.802)" fill="#354593"/>
      <path id="패스_83" data-name="패스 83" d="M1248-1359.159c2.641-3.627,6.185-4.184,9.2-1.988s3.564,5.756.935,9.367c-2.64,3.627-6.271,4.3-9.288,2.108S1245.36-1355.532,1248-1359.159Zm7.432,5.41c1.558-2.14,1.571-4.064.114-5.124s-3.268-.446-4.826,1.694-1.662,4.157-.205,5.217S1253.874-1351.608,1255.432-1353.749Z" transform="translate(-1004.736 1391.354)" fill="#354593"/>
      <path id="패스_84" data-name="패스 84" d="M1268.433-1352.134l6.567,5.756-1.806,2.06-4.092-3.587-1.975,2.253,3.511,3.078-1.805,2.06-3.511-3.078-3.442,3.925-2.474-2.169Z" transform="translate(-1007.812 1388.94)" fill="#354593"/>
      <path id="패스_85" data-name="패스 85" d="M1285.323-1336.073l2.625,2.928c2.785,3.107,3.12,6.509-.423,9.686s-6.986,2.562-9.648-.408l-2.748-3.065Zm-5.734,10.151c1.473,1.642,3.269,2.13,5.69-.041s2.05-3.936.577-5.578l-.295-.329-6.267,5.62Z" transform="translate(-1011.494 1385.178)" fill="#354593"/>
      <path id="패스_86" data-name="패스 86" d="M1297.973-1321.206l5.2,6.95-2.193,1.64-3.225-4.314-2.032,1.519,2.741,3.666-2.209,1.651-2.741-3.666-2.326,1.739,3.346,4.476-2.208,1.651-5.316-7.112Z" transform="translate(-1014.275 1381.696)" fill="#354593"/>
      <path id="패스_87" data-name="패스 87" d="M1297.524-1301.284l2.911.391a5.438,5.438,0,0,0,.57,3.546c.642,1.028,1.335,1.268,1.958.878.67-.419.489-1.195.286-2.455l-.3-1.871a4.005,4.005,0,0,1,1.708-4.341c1.948-1.218,4.6-.447,6.139,2.016a6.365,6.365,0,0,1,.831,4.727l-2.613-.3a4.453,4.453,0,0,0-.6-2.941c-.537-.858-1.2-1.157-1.809-.777-.655.41-.456,1.282-.218,2.565l.33,1.81a3.781,3.781,0,0,1-1.748,4.279c-1.933,1.208-4.645.649-6.4-2.156A7.652,7.652,0,0,1,1297.524-1301.284Z" transform="translate(-1016.71 1378.065)" fill="#354593"/>
      <path id="패스_88" data-name="패스 88" d="M1305.684-1287.777l2.87.626a5.441,5.441,0,0,0,.28,3.581c.558,1.078,1.228,1.372,1.881,1.035.7-.364.584-1.151.484-2.424l-.149-1.889a4.007,4.007,0,0,1,2.054-4.188c2.041-1.056,4.62-.073,5.955,2.506a6.366,6.366,0,0,1,.444,4.779l-2.58-.507a4.45,4.45,0,0,0-.362-2.979c-.464-.9-1.1-1.251-1.739-.921-.685.355-.558,1.241-.425,2.539l.182,1.83a3.779,3.779,0,0,1-2.088,4.123c-2.025,1.048-4.683.271-6.2-2.667A7.655,7.655,0,0,1,1305.684-1287.777Z" transform="translate(-1018.591 1374.728)" fill="#354593"/>
      <path id="패스_89" data-name="패스 89" d="M1312.726-1273.634l2.808.859a5.432,5.432,0,0,0-.014,3.59c.466,1.119,1.11,1.467,1.789,1.185.729-.3.676-1.1.681-2.375l0-1.895a4.005,4.005,0,0,1,2.39-4c2.119-.885,4.608.306,5.727,2.984a6.36,6.36,0,0,1,.052,4.8l-2.529-.716a4.445,4.445,0,0,0-.118-3c-.388-.932-1-1.336-1.657-1.06-.712.3-.657,1.191-.631,2.494l.031,1.839a3.779,3.779,0,0,1-2.418,3.936c-2.1.878-4.687-.113-5.962-3.165A7.649,7.649,0,0,1,1312.726-1273.634Z" transform="translate(-1020.198 1371.241)" fill="#354593"/>
      <path id="패스_90" data-name="패스 90" d="M1330.221-1261.528l2.658,8.256-2.606.839-1.65-5.125-2.414.777,1.4,4.356-2.624.845-1.4-4.356-2.764.89,1.712,5.318-2.624.845-2.719-8.449Z" transform="translate(-1021.345 1367.719)" fill="#354593"/>
      <path id="패스_91" data-name="패스 91" d="M1335.2-1245l1.111,4.893c.646,2.85.2,5.44-3.03,6.172a4.047,4.047,0,0,1-4.374-1.42l-4.613,4.175-.812-3.585,4.138-3.522-.349-1.542-4.7,1.065-.728-3.208Zm-5.077,6.033c.347,1.524,1.2,2.2,2.451,1.913s1.48-1.2,1.134-2.726l-.325-1.434-3.585.813Z" transform="translate(-1022.435 1363.848)" fill="#354593"/>
      <path id="패스_92" data-name="패스 92" d="M1336.729-1224.111l-.505-3.659,2.713-.375,1.462,10.6-2.713.375-.507-3.678-10.851,1.5-.449-3.258Z" transform="translate(-1023.38 1359.901)" fill="#354593"/>
      <path id="패스_93" data-name="패스 93" d="M1341.512-1202.51l.083,4.815c.051,3-.991,5.5-4.373,5.554-3.254.056-4.73-2.419-4.78-5.323l-.028-1.6-4.54.078-.057-3.291Zm-6.481,4.836c.028,1.6.795,2.359,2.136,2.335,1.379-.023,1.842-.914,1.815-2.494l-.024-1.342-3.951.068Z" transform="translate(-1023.834 1353.897)" fill="#354593"/>
      <path id="패스_94" data-name="패스 94" d="M1341.441-1184.359l-.168,3.286-13.676-.7.167-3.286Z" transform="translate(-1023.782 1349.809)" fill="#354593"/>
      <path id="패스_95" data-name="패스 95" d="M1333.815-1175.784c4.526.536,6.76,3.873,6.35,7.323a5.823,5.823,0,0,1-2.258,3.915l-1.88-1.944a3.467,3.467,0,0,0,1.34-2.247c.208-1.752-1.191-3.38-3.838-3.693-2.7-.32-4.418.735-4.645,2.652a3.517,3.517,0,0,0,.934,2.739l-2.248,1.473a5.691,5.691,0,0,1-1.482-4.673C1326.5-1173.689,1329.215-1176.328,1333.815-1175.784Z" transform="translate(-1023.418 1347.654)" fill="#354593"/>
      <path id="패스_96" data-name="패스 96" d="M1338.005-1156.762l-1.754,8.494-2.681-.554,1.089-5.273-2.484-.513-.925,4.481-2.7-.557.926-4.481-2.843-.587-1.13,5.47-2.7-.558,1.8-8.691Z" transform="translate(-1022.66 1343.831)" fill="#354593"/>
      <path id="패스_97" data-name="패스 97" d="M1326.121-1136.1c4.243,1.454,5.818,4.676,4.609,8.206s-4.448,5.1-8.674,3.653c-4.243-1.454-5.959-4.723-4.749-8.254S1321.878-1137.557,1326.121-1136.1Zm-2.98,8.693c2.5.859,4.346.3,4.93-1.4s-.538-3.254-3.041-4.112-4.461-.363-5.045,1.341S1320.637-1128.268,1323.14-1127.41Z" transform="translate(-1021.284 1338.472)" fill="#354593"/>
      <path id="패스_98" data-name="패스 98" d="M1325.606-1114.213l-3.575,7.964-2.5-1.121,2.228-4.963-2.733-1.227-1.911,4.259-2.5-1.121,1.911-4.259-4.762-2.137,1.347-3Z" transform="translate(-1020.075 1334.531)" fill="#354593"/>
      <path id="패스_99" data-name="패스 99" d="M1314.923-1093.453l-2.033,3.366c-2.156,3.571-5.311,4.885-9.385,2.424s-4.489-5.931-2.428-9.344l2.129-3.523Zm-11.381-2.516c-1.14,1.888-1.082,3.747,1.7,5.429s4.362.809,5.5-1.078l.227-.378-7.2-4.351Z" transform="translate(-1017.287 1330.013)" fill="#354593"/>
      <path id="패스_100" data-name="패스 100" d="M1304.1-1077.1l-5.129,7-2.21-1.62,3.184-4.344-2.046-1.5-2.706,3.692-2.224-1.63,2.706-3.693-2.343-1.717-3.3,4.507-2.224-1.63,5.248-7.162Z" transform="translate(-1014.462 1326.421)" fill="#354593"/>
      <path id="패스_101" data-name="패스 101" d="M1285.665-1071.995l.476,2.9a5.443,5.443,0,0,0-3.225,1.58c-.8.916-.822,1.647-.267,2.13.6.518,1.284.119,2.431-.443l1.7-.835a4.005,4.005,0,0,1,4.651.366c1.733,1.507,1.77,4.266-.135,6.458a6.363,6.363,0,0,1-4.277,2.175l-.481-2.585a4.447,4.447,0,0,0,2.636-1.434c.663-.763.757-1.486.215-1.957-.583-.506-1.359-.061-2.516.541l-1.634.844a3.78,3.78,0,0,1-4.6-.421c-1.72-1.5-1.978-4.252.193-6.749A7.649,7.649,0,0,1,1285.665-1071.995Z" transform="translate(-1012.465 1323.33)" fill="#354593"/>
      <path id="패스_102" data-name="패스 102" d="M1275.209-1060.273l.24,2.927a5.436,5.436,0,0,0-3.34,1.316c-.867.849-.953,1.575-.44,2.1.553.565,1.272.221,2.459-.247l1.762-.7a4,4,0,0,1,4.605.738c1.607,1.642,1.421,4.395-.654,6.426a6.368,6.368,0,0,1-4.439,1.823l-.27-2.615a4.444,4.444,0,0,0,2.742-1.218c.722-.708.873-1.421.371-1.933-.54-.551-1.349-.17-2.551.337l-1.7.709a3.779,3.779,0,0,1-4.553-.79c-1.594-1.629-1.629-4.4.735-6.711A7.655,7.655,0,0,1,1275.209-1060.273Z" transform="translate(-1009.899 1320.585)" fill="#354593"/>
      <path id="패스_103" data-name="패스 103" d="M1263.837-1049.42l0,2.938a5.432,5.432,0,0,0-3.438,1.039c-.933.775-1.078,1.492-.608,2.058.505.608,1.249.325,2.471-.045l1.813-.55a4,4,0,0,1,4.53,1.111c1.468,1.767,1.059,4.5-1.175,6.352a6.364,6.364,0,0,1-4.573,1.456l-.057-2.629a4.443,4.443,0,0,0,2.833-.991c.778-.646.986-1.344.528-1.9-.494-.594-1.332-.28-2.571.127l-1.749.569a3.779,3.779,0,0,1-4.474-1.158c-1.457-1.753-1.266-4.515,1.279-6.63A7.659,7.659,0,0,1,1263.837-1049.42Z" transform="translate(-1007.121 1318.045)" fill="#354593"/>
      <path id="패스_104" data-name="패스 104" d="M1257.026-1029.152l-7.11,4.969-1.569-2.244,4.413-3.085-1.452-2.078-3.751,2.621-1.579-2.259,3.75-2.621-1.664-2.379-4.578,3.2-1.58-2.259,7.275-5.086Z" transform="translate(-1003.713 1315.924)" fill="#354593"/>
      <path id="패스_105" data-name="패스 105" d="M1242.344-1019.643l-4.347,2.5c-2.532,1.459-5.139,1.794-6.791-1.074a4.05,4.05,0,0,1,.067-4.6l-5.349-3.175,3.185-1.835,4.585,2.916,1.37-.79-2.4-4.172,2.85-1.642Zm-7.261-3.071c-1.355.78-1.747,1.79-1.105,2.905s1.586,1.059,2.939.279l1.274-.734-1.834-3.186Z" transform="translate(-999.97 1313.848)" fill="#354593"/>
      <path id="패스_106" data-name="패스 106" d="M1214.446-1004.866l-4.5,1.715c-2.8,1.067-5.505.937-6.709-2.224-1.159-3.04.667-5.27,3.381-6.3l1.495-.569-1.617-4.243,3.075-1.172Zm-6.75-4.45c-1.495.569-1.947,1.548-1.47,2.8.491,1.289,1.486,1.421,2.963.858l1.254-.478-1.408-3.693Z" transform="translate(-994.573 1310.605)" fill="#354593"/>
      <path id="패스_107" data-name="패스 107" d="M1198.488-998.745l-3.148.953-3.97-13.1,3.149-.953Z" transform="translate(-991.877 1309.243)" fill="#354593"/>
      <path id="패스_108" data-name="패스 108" d="M1185.961-1002.53c1.02,4.442-1.369,7.669-4.755,8.447a5.828,5.828,0,0,1-4.448-.808l1.2-2.424a3.466,3.466,0,0,0,2.567.5c1.72-.4,2.781-2.261,2.185-4.857-.609-2.651-2.181-3.912-4.062-3.481a3.521,3.521,0,0,0-2.264,1.8l-2.145-1.62a5.692,5.692,0,0,1,3.9-2.971C1181.524-1008.714,1184.924-1007.043,1185.961-1002.53Z" transform="translate(-987.865 1308.37)" fill="#354593"/>
      <path id="패스_109" data-name="패스 109" d="M1169.793-992.2l-8.588,1.213-.383-2.711,5.331-.753-.355-2.511-4.53.64-.386-2.729,4.53-.64-.406-2.875-5.531.782-.386-2.729,8.788-1.242Z" transform="translate(-984.317 1307.815)" fill="#354593"/>
      <path id="패스_110" data-name="패스 110" d="M1145.791-996.4c.071,4.485-2.425,7.062-6.156,7.121s-6.309-2.455-6.379-6.922c-.072-4.484,2.422-7.208,6.153-7.267S1145.72-1000.889,1145.791-996.4Zm-9.19.146c.042,2.647,1.188,4.191,2.989,4.163s2.879-1.608,2.838-4.255-1.172-4.321-2.974-4.292S1136.558-998.9,1136.6-996.258Z" transform="translate(-978.266 1307.282)" fill="#354593"/>
      <path id="패스_111" data-name="패스 111" d="M1125.245-989.682l-8.7-.649.2-2.73,5.423.405.223-2.987-4.654-.348.2-2.73,4.654.348.388-5.2,3.28.245Z" transform="translate(-974.352 1307.306)" fill="#354593"/>
      <path id="패스_112" data-name="패스 112" d="M1101.551-992.294l-3.858-.762c-4.093-.809-6.405-3.327-5.482-8s4.044-6.245,7.957-5.472l4.04.8Zm-1.519-11.56c-2.163-.427-3.892.261-4.523,3.453s.727,4.377,2.891,4.805l.433.085,1.633-8.258Z" transform="translate(-968.606 1308.04)" fill="#354593"/>
      <path id="패스_113" data-name="패스 113" d="M1082.69-996.818l-8.323-2.437.77-2.627,5.167,1.513.713-2.434-4.39-1.286.774-2.645,4.391,1.287.816-2.786-5.361-1.571.775-2.644,8.516,2.494Z" transform="translate(-964.475 1309.384)" fill="#354593"/>
      <path id="패스_114" data-name="패스 114" d="M1071.482-1012.586l-2.565,1.431a5.442,5.442,0,0,0-2.581-2.5c-1.131-.438-1.829-.215-2.094.47-.285.737.325,1.25,1.243,2.137l1.362,1.316a4.007,4.007,0,0,1,1.235,4.5c-.83,2.143-3.413,3.114-6.123,2.065a6.367,6.367,0,0,1-3.5-3.286l2.269-1.329a4.447,4.447,0,0,0,2.245,1.993c.943.365,1.654.207,1.913-.462.279-.72-.4-1.3-1.362-2.183l-1.349-1.251a3.78,3.78,0,0,1-1.166-4.472c.823-2.126,3.33-3.3,6.415-2.11A7.658,7.658,0,0,1,1071.482-1012.586Z" transform="translate(-960.75 1310.39)" fill="#354593"/>
      <path id="패스_115" data-name="패스 115" d="M1056.81-1018.466l-2.673,1.218a5.437,5.437,0,0,0-2.369-2.7c-1.092-.529-1.806-.364-2.127.3-.344.711.222,1.272,1.064,2.232l1.251,1.424a4.006,4.006,0,0,1,.864,4.586c-1,2.068-3.657,2.825-6.272,1.558a6.37,6.37,0,0,1-3.219-3.561l2.371-1.14a4.452,4.452,0,0,0,2.075,2.169c.91.44,1.633.341,1.945-.3.336-.7-.3-1.329-1.18-2.288l-1.242-1.358a3.781,3.781,0,0,1-.8-4.553c.995-2.052,3.589-3.022,6.567-1.578A7.65,7.65,0,0,1,1056.81-1018.466Z" transform="translate(-957.206 1311.891)" fill="#354593"/>
      <path id="패스_116" data-name="패스 116" d="M1042.686-1025.516l-2.763,1a5.441,5.441,0,0,0-2.14-2.884c-1.045-.616-1.77-.51-2.143.123-.4.681.116,1.286.878,2.31l1.131,1.52a4.005,4.005,0,0,1,.486,4.64c-1.167,1.979-3.874,2.517-6.376,1.042a6.362,6.362,0,0,1-2.916-3.811l2.454-.943a4.445,4.445,0,0,0,1.891,2.331c.87.514,1.6.473,1.963-.144.392-.665-.187-1.349-.99-2.376l-1.126-1.454a3.78,3.78,0,0,1-.423-4.6c1.157-1.964,3.821-2.718,6.672-1.038A7.654,7.654,0,0,1,1042.686-1025.516Z" transform="translate(-953.813 1313.667)" fill="#354593"/>
      <path id="패스_117" data-name="패스 117" d="M1020.957-1025.074l-7.081-5.014,1.582-2.235,4.4,3.112,1.466-2.071-3.736-2.645,1.593-2.251,3.736,2.645,1.678-2.371-4.561-3.229,1.593-2.251,7.248,5.13Z" transform="translate(-950.307 1316.16)" fill="#354593"/>
      <path id="패스_118" data-name="패스 118" d="M1007.246-1035.656l-3.825-3.247c-2.228-1.892-3.422-4.233-1.281-6.754a4.046,4.046,0,0,1,4.351-1.49l1.184-6.108,2.8,2.379-1.2,5.3,1.2,1.023,3.116-3.67,2.509,2.129Zm.44-7.872c-1.191-1.011-2.275-1.04-3.108-.059s-.461,1.85.729,2.861l1.121.952,2.379-2.8Z" transform="translate(-947.295 1318.941)" fill="#354593"/>
      <path id="패스_119" data-name="패스 119" d="M993.166-1050.553l2.6,2.621L993.825-1046l-7.535-7.589,1.943-1.929,2.615,2.634,7.773-7.717,2.317,2.334Z" transform="translate(-943.847 1320.662)" fill="#354593"/>
      <path id="패스_120" data-name="패스 120" d="M977.1-1064l-2.96-3.8c-1.842-2.362-2.513-4.984.153-7.064,2.565-2,5.232-.911,7.017,1.378l.982,1.26,3.579-2.791,2.023,2.594Zm2.269-7.757c-.983-1.26-2.052-1.406-3.11-.581-1.086.848-.921,1.837.051,3.083l.825,1.057,3.115-2.429Z" transform="translate(-940.621 1324.247)" fill="#354593"/>
      <path id="패스_121" data-name="패스 121" d="M966.908-1078.247l-1.839-2.728,11.352-7.652,1.839,2.728Z" transform="translate(-938.877 1327.225)" fill="#354593"/>
      <path id="패스_122" data-name="패스 122" d="M966.885-1091.117c-3.945,2.287-7.733.956-9.475-2.05a5.825,5.825,0,0,1-.541-4.488l2.67.427a3.468,3.468,0,0,0,.276,2.6c.885,1.527,2.981,1.99,5.288.654,2.353-1.365,3.094-3.239,2.126-4.909a3.524,3.524,0,0,0-2.391-1.632l.914-2.527a5.689,5.689,0,0,1,3.99,2.85C971.485-1097.184,970.892-1093.441,966.885-1091.117Z" transform="translate(-936.904 1330.601)" fill="#354593"/>
      <path id="패스_123" data-name="패스 123" d="M951.809-1103.7l-3.7-7.848,2.478-1.167,2.294,4.872,2.294-1.081-1.949-4.141,2.494-1.174,1.95,4.141,2.627-1.238-2.38-5.054,2.494-1.175,3.781,8.032Z" transform="translate(-934.905 1334.003)" fill="#354593"/>
      <path id="패스_124" data-name="패스 124" d="M949.193-1127.492c-4.266,1.38-7.459-.252-8.607-3.8s.5-6.747,4.749-8.121c4.266-1.38,7.6.207,8.745,3.755S953.458-1128.872,949.193-1127.492Zm-2.828-8.74c-2.517.814-3.658,2.361-3.1,4.074s2.379,2.281,4.9,1.467,3.786-2.384,3.232-4.1S948.882-1137.047,946.365-1136.233Z" transform="translate(-933.059 1339.236)" fill="#354593"/>
      <path id="패스_125" data-name="패스 125" d="M936.548-1144.854l-1.914-8.52,2.672-.6,1.194,5.309,2.923-.657-1.024-4.556,2.673-.6,1.024,4.556,5.094-1.145.721,3.21Z" transform="translate(-931.749 1342.648)" fill="#354593"/>
      <path id="패스_126" data-name="패스 126" d="M932.524-1168.577l-.392-3.913c-.416-4.151,1.32-7.1,6.057-7.571s7.151,2.053,7.549,6.021l.41,4.1Zm10.619-4.814c-.221-2.195-1.382-3.648-4.619-3.324s-3.977,1.969-3.757,4.163l.044.439,8.375-.84Z" transform="translate(-931.149 1348.653)" fill="#354593"/>
      <path id="패스_127" data-name="패스 127" d="M931-1187.383l-.139-8.676,2.738-.044.087,5.386,2.536-.041-.073-4.576,2.757-.044.073,4.577,2.9-.046-.089-5.588,2.757-.044.141,8.878Z" transform="translate(-930.866 1352.484)" fill="#354593"/>
      <path id="패스_128" data-name="패스 128" d="M942.981-1202.862l-2.124-2.028a5.435,5.435,0,0,0,1.625-3.2c.085-1.21-.334-1.81-1.067-1.862-.788-.055-1.1.679-1.676,1.817l-.855,1.69a4,4,0,0,1-3.935,2.506c-2.291-.161-3.981-2.343-3.778-5.239a6.365,6.365,0,0,1,2.108-4.311l1.939,1.776a4.447,4.447,0,0,0-1.242,2.732c-.07,1.009.29,1.642,1,1.692.77.054,1.123-.768,1.685-1.945l.8-1.657a3.779,3.779,0,0,1,3.929-2.433c2.273.159,4.138,2.206,3.906,5.506A7.653,7.653,0,0,1,942.981-1202.862Z" transform="translate(-930.934 1356.469)" fill="#354593"/>
      <path id="패스_129" data-name="패스 129" d="M944.315-1218.671l-1.952-2.194a5.44,5.44,0,0,0,1.879-3.06c.183-1.2-.186-1.832-.913-1.943-.781-.12-1.149.587-1.817,1.676l-.989,1.615a4,4,0,0,1-4.125,2.179c-2.271-.346-3.778-2.658-3.34-5.529a6.363,6.363,0,0,1,2.451-4.126l1.789,1.927a4.449,4.449,0,0,0-1.46,2.622c-.152,1,.156,1.66.865,1.768.763.116,1.181-.675,1.836-1.8l.93-1.588a3.78,3.78,0,0,1,4.114-2.106c2.253.344,3.946,2.536,3.447,5.805A7.653,7.653,0,0,1,944.315-1218.671Z" transform="translate(-931.361 1360.348)" fill="#354593"/>
      <path id="패스_130" data-name="패스 130" d="M935.37-1238.453l2.025-8.438,2.663.639-1.257,5.239,2.467.592,1.068-4.452,2.682.643-1.068,4.452,2.826.678,1.3-5.435,2.682.643-2.071,8.635Z" transform="translate(-931.921 1364.291)" fill="#354593"/>
      <path id="패스_131" data-name="패스 131" d="M939.638-1255.287l1.6-4.756c.929-2.77,2.658-4.749,5.794-3.7a4.048,4.048,0,0,1,3,3.487l6.109-1.169-1.169,3.485-5.364.856-.5,1.5,4.564,1.532-1.045,3.118Zm7.472-2.515c.5-1.48.12-2.5-1.1-2.907s-1.889.258-2.385,1.739l-.468,1.394,3.485,1.169Z" transform="translate(-932.92 1368.305)" fill="#354593"/>
      <path id="패스_132" data-name="패스 132" d="M949.267-1274.2l-1.473,3.386-2.511-1.091,4.265-9.807,2.51,1.091-1.48,3.4,10.043,4.366-1.312,3.017Z" transform="translate(-934.243 1372.448)" fill="#354593"/>
    </g>
  </g>
</svg>
